<svg xmlns="http://www.w3.org/2000/svg" width="413.3" height="401.06" viewBox="0 0 413.3 401.06">
  <g id="Customer_Survey-cuate" data-name="Customer Survey-cuate" transform="translate(-46.98 -61.92)">
    <g id="freepik--background-complete--inject-13">
      <path id="Path_150387" data-name="Path 150387" d="M46.98,257.73h88.65V199.77H46.98v57.96Z" fill="#dbdbdb"/>
      <path id="Path_150388" data-name="Path 150388" d="M135.63,216.87v-17.1h17.8Z" fill="#dbdbdb"/>
      <rect id="Rectangle_110131" data-name="Rectangle 110131" width="67.5" height="1.1" transform="translate(57.56 209.8)" fill="#fff"/>
      <rect id="Rectangle_110132" data-name="Rectangle 110132" width="33.58" height="1.1" transform="translate(57.56 215.74)" fill="#fff"/>
      <rect id="Rectangle_110133" data-name="Rectangle 110133" width="54.07" height="1.1" transform="translate(57.56 227.64)" fill="#fff"/>
      <rect id="Rectangle_110134" data-name="Rectangle 110134" width="67.5" height="1.1" transform="translate(57.56 233.58)" fill="#fff"/>
      <rect id="Rectangle_110135" data-name="Rectangle 110135" width="67.5" height="1.1" transform="translate(57.56 239.53)" fill="#fff"/>
      <rect id="Rectangle_110136" data-name="Rectangle 110136" width="22.24" height="1.1" transform="translate(57.56 245.48)" fill="#fff"/>
      <rect id="Rectangle_110137" data-name="Rectangle 110137" width="88.65" height="48.9" transform="translate(371.63 82.97)" fill="#ebebeb"/>
      <path id="Path_150389" data-name="Path 150389" d="M371.65,100.06V82.97h-17.8Z" fill="#ebebeb"/>
      <rect id="Rectangle_110138" data-name="Rectangle 110138" width="40.19" height="1.1" transform="translate(382.41 92)" fill="#fff"/>
      <rect id="Rectangle_110139" data-name="Rectangle 110139" width="67.5" height="1.1" transform="translate(382.41 97.95)" fill="#fff"/>
      <rect id="Rectangle_110140" data-name="Rectangle 110140" width="67.5" height="1.1" transform="translate(382.41 103.89)" fill="#fff"/>
      <rect id="Rectangle_110141" data-name="Rectangle 110141" width="54.56" height="1.1" transform="translate(382.41 109.84)" fill="#fff"/>
      <rect id="Rectangle_110142" data-name="Rectangle 110142" width="67.5" height="1.1" transform="translate(382.41 115.79)" fill="#fff"/>
      <rect id="Rectangle_110143" data-name="Rectangle 110143" width="24.83" height="1.1" transform="translate(382.41 121.73)" fill="#fff"/>
      <rect id="Rectangle_110144" data-name="Rectangle 110144" width="88.65" height="36.27" transform="translate(371.63 139.78)" fill="#dbdbdb"/>
      <path id="Path_150390" data-name="Path 150390" d="M371.65,156.87V139.78h-17.8Z" fill="#dbdbdb"/>
      <rect id="Rectangle_110145" data-name="Rectangle 110145" width="67.21" height="1.1" transform="translate(382.41 148.81)" fill="#fff"/>
      <rect id="Rectangle_110146" data-name="Rectangle 110146" width="38.35" height="1.1" transform="translate(382.41 154.76)" fill="#fff"/>
      <rect id="Rectangle_110147" data-name="Rectangle 110147" width="51.84" height="1.1" transform="translate(382.41 160.7)" fill="#fff"/>
      <rect id="Rectangle_110148" data-name="Rectangle 110148" width="18.06" height="1.1" transform="translate(382.41 166.65)" fill="#fff"/>
      <path id="Path_150391" data-name="Path 150391" d="M54.54,171.81l2.33,4.73,5.22.76-3.78,3.68.9,5.2-4.67-2.46-4.67,2.46.89-5.2-3.78-3.68,5.22-.76Z" fill="#8363aa"/>
      <path id="Path_150392" data-name="Path 150392" d="M75.09,171.81l2.34,4.73,5.21.76-3.77,3.68.89,5.2-4.67-2.46-4.67,2.46.9-5.2-3.78-3.68,5.22-.76Z" fill="#8363aa"/>
      <path id="Path_150393" data-name="Path 150393" d="M95.65,171.81l2.33,4.73,5.22.76-3.78,3.68.89,5.2-4.66-2.46-4.67,2.46.89-5.2-3.78-3.68,5.22-.76Z" fill="#8363aa"/>
      <path id="Path_150394" data-name="Path 150394" d="M116.2,171.81l2.33,4.73,5.22.76-3.77,3.68.89,5.2-4.67-2.46-4.67,2.46.89-5.2-3.77-3.68,5.22-.76Z" fill="#c7c7c7"/>
      <path id="Path_150395" data-name="Path 150395" d="M136.75,171.81l2.34,4.73,5.22.76-3.78,3.68.89,5.2-4.67-2.46-4.66,2.46.89-5.2-3.78-3.68,5.22-.76Z" fill="#c7c7c7"/>
      <circle id="Ellipse_793" data-name="Ellipse 793" cx="33.53" cy="33.53" r="33.53" transform="translate(77.721 79.713) rotate(-9.23)" fill="#ebebeb"/>
      <path id="Path_150396" data-name="Path 150396" d="M134,94.88a4.72,4.72,0,1,1-5.91-3.09A4.72,4.72,0,0,1,134,94.88Z" fill="#c7c7c7"/>
      <path id="Path_150397" data-name="Path 150397" d="M103.44,104.47a4.72,4.72,0,1,1-5.91-3.09,4.72,4.72,0,0,1,5.91,3.09Z" fill="#c7c7c7"/>
      <path id="Path_150398" data-name="Path 150398" d="M105.46,101.69a10.61,10.61,0,0,0,4.46,4,8.19,8.19,0,0,0,5.63.12,7.91,7.91,0,0,0,4.58-3.24,11.62,11.62,0,0,0,1.68-5.77,9.07,9.07,0,0,1-.61,6.39,7.79,7.79,0,0,1-2.16,2.62,10,10,0,0,1-3,1.52,10.45,10.45,0,0,1-3.35.41,7.79,7.79,0,0,1-3.27-1A8.47,8.47,0,0,1,105.46,101.69Z" fill="#c7c7c7"/>
      <circle id="Ellipse_794" data-name="Ellipse 794" cx="33.53" cy="33.53" r="33.53" transform="translate(368.558 309.556) rotate(-77.92)" fill="#ebebeb"/>
      <path id="Path_150399" data-name="Path 150399" d="M429.93,286.44a4.71,4.71,0,1,1,.153-3.613,4.72,4.72,0,0,1-.153,3.613Z" fill="#c7c7c7"/>
      <path id="Path_150400" data-name="Path 150400" d="M400.87,273a4.71,4.71,0,1,1,.153-3.613A4.72,4.72,0,0,1,400.87,273Z" fill="#c7c7c7"/>
      <path id="Path_150401" data-name="Path 150401" d="M416.15,287.19a10.61,10.61,0,0,0-.64-5.95,8.2,8.2,0,0,0-4.08-3.88,8,8,0,0,0-5.57-.68,11.69,11.69,0,0,0-5.12,3.15,9.05,9.05,0,0,1,4.74-4.32,7.84,7.84,0,0,1,3.37-.49,10,10,0,0,1,3.27.92,10.51,10.51,0,0,1,2.75,1.95,7.69,7.69,0,0,1,1.78,2.91,8.53,8.53,0,0,1-.5,6.39Z" fill="#c7c7c7"/>
    </g>
    <g id="freepik--Shadow--inject-13">
      <ellipse id="Ellipse_795" data-name="Ellipse 795" cx="198.31" cy="22.08" rx="198.31" ry="22.08" transform="translate(51.69 418.82)" fill="#ebebeb"/>
    </g>
    <g id="freepik--Floor--inject-13">
      <path id="Path_150402" data-name="Path 150402" d="M46.98,418.81l50.76-.24,50.75-.09L250,418.32l101.51.16,50.75.09,50.75.24-50.75.25-50.75.09L250,419.31l-101.51-.16-50.75-.09Z" fill="#263238"/>
    </g>
    <g id="freepik--Character--inject-13">
      <path id="Path_150403" data-name="Path 150403" d="M436.68,433.15c-1.91.65-56.42.84-58.5-.47-1-.6-1.49-12.19-1.79-24.43l35.47-.23-.14,6.4s20.9,9.26,23,10.94S438.58,432.51,436.68,433.15Z" fill="#fff"/>
      <path id="Path_150404" data-name="Path 150404" d="M436.68,433.15c-1.91.65-56.42.84-58.5-.47-.8-.49-1.29-8.43-1.61-18l35.15-.23s20.9,9.26,23,10.94S438.58,432.51,436.68,433.15Z" fill="#8363aa"/>
      <path id="Path_150405" data-name="Path 150405" d="M435.89,431c-9.14-.2-46-.11-55.07.4-.07,0-.07.05,0,.05,9.05.39,45.93,0,55.07-.3C436.08,431.12,436.08,431,435.89,431Z" fill="#263238"/>
      <path id="Path_150406" data-name="Path 150406" d="M431.24,423.41a7.36,7.36,0,0,0-5.46,2.25,7.08,7.08,0,0,0-2,4.89c0,.05.1.06.11,0a8.48,8.48,0,0,1,7.37-7,.071.071,0,1,0-.02-.14Z" fill="#263238"/>
      <path id="Path_150407" data-name="Path 150407" d="M415.26,415.32c-3.65,0-7.89,1.27-10.15,4.26-.09.12.08.24.19.19a50.216,50.216,0,0,1,10-4,.23.23,0,0,0-.04-.45Z" fill="#263238"/>
      <path id="Path_150408" data-name="Path 150408" d="M418.09,416.41c-3.66,0-7.89,1.27-10.15,4.27-.09.11.07.23.18.18a50.068,50.068,0,0,1,10-4,.23.23,0,0,0-.03-.45Z" fill="#263238"/>
      <path id="Path_150409" data-name="Path 150409" d="M420.92,417.5c-3.66,0-7.89,1.27-10.16,4.27-.08.11.08.24.19.18a50.218,50.218,0,0,1,10-4,.23.23,0,0,0-.03-.45Z" fill="#263238"/>
      <path id="Path_150410" data-name="Path 150410" d="M423.75,418.59c-3.66,0-7.9,1.27-10.16,4.27-.09.11.08.24.19.18a50.217,50.217,0,0,1,10-4,.23.23,0,0,0-.03-.45Z" fill="#263238"/>
      <path id="Path_150411" data-name="Path 150411" d="M383.12,422.69c-4.11,0-4.07,6.4,0,6.38S387.23,422.66,383.12,422.69Z" fill="#263238"/>
      <path id="Path_150412" data-name="Path 150412" d="M419.18,405.54c-1.85-1.53-4.18,0-5.32,1.58a19.26,19.26,0,0,0-3.29,9.37c0,.07.06.1.12.1a.45.45,0,0,0,.66.29c2.59-1.81,5.6-3.42,7.56-6C420.06,409.41,420.94,407,419.18,405.54Zm-4.46,7.79c-1.25.92-2.55,1.78-3.77,2.75.65-1.83,1.21-3.67,2-5.43a21,21,0,0,1,1.33-2.47c.79-1.21,4.37-4.28,4.75-.3.25,2.19-2.81,4.35-4.31,5.45Z" fill="#263238"/>
      <path id="Path_150413" data-name="Path 150413" d="M401.49,417.87c3.19.48,6.47-.44,9.6-.93a.45.45,0,0,0,.27-.67.1.1,0,0,0,0-.15,19.23,19.23,0,0,0-8.87-4.47c-1.92-.37-4.65.16-4.92,2.55S399.63,417.59,401.49,417.87Zm-2.22-2.07c-2.48-3.13,2.23-3.4,3.64-3.07a21.267,21.267,0,0,1,2.67.86c1.81.69,3.5,1.63,5.23,2.49-1.55.15-3.08.43-4.62.64C404.35,417,400.64,417.53,399.27,415.8Z" fill="#263238"/>
      <path id="Path_150414" data-name="Path 150414" d="M413.25,414.35l-41.93.79S360.67,327,360.19,324.83c-1.14-5.06-25.61-85.3-25.61-85.3l42.95-.05s-.7,13.41-.29,14.82c5.71,19.42,17.38,53.87,21,65.86C403.86,338.63,413.25,414.35,413.25,414.35Z" fill="#37474f"/>
      <path id="Path_150415" data-name="Path 150415" d="M411.35,407.6c-6.32-.05-28.73-.3-37.15.48-.06,0-.06.12,0,.13,2.9.41,30.83-.24,37.16-.44a.09.09,0,1,0-.01-.17Z" fill="#263238"/>
      <path id="Path_150416" data-name="Path 150416" d="M373,374.65q-1.53-14.65-3.15-29.31c-1.05-9.56-2.1-19.11-4.46-28.46-1.18-4.65-2.67-9.22-4.18-13.78l-4.62-13.93c-3.11-9.35-6.2-18.72-9.46-28-.4-1.15-.8-2.29-1.21-3.44a.152.152,0,1,0-.29.09c2.83,9.38,5.91,18.7,9,28l4.59,14c1.5,4.57,3,9.14,4.35,13.78,2.62,9.26,3.77,18.82,4.79,28.36q1.58,14.64,3.18,29.27c1.06,9.77,2.12,19.57,3.53,29.3.17,1.21.33,2.42.49,3.63,0,.12.21.13.2,0C375,394.29,374.05,384.47,373,374.65Z" fill="#263238"/>
      <path id="Path_150417" data-name="Path 150417" d="M368.66,239.49l-7,96.71c-.83-6.57-1.39-10.92-1.49-11.37-1.14-5.06-25.61-85.3-25.61-85.3Z" fill="#263238"/>
      <path id="Path_150418" data-name="Path 150418" d="M368.41,437.05c-2,.36-57.31-7.77-59.19-9.36a.75.75,0,0,1-.17-.35c-.41-1.74,1.6-8.66,2.57-17.32,0-.16.48-2.86,1.12-6.7l35,5.12-1.34,6.46s19.34,12.2,21.2,14.16S370.38,436.69,368.41,437.05Z" fill="#fff"/>
      <path id="Path_150419" data-name="Path 150419" d="M368.41,437.05c-2,.36-57.32-7.77-59.19-9.36-.71-.61-.14-8,2.4-17.66l34.81,4.87s19.34,12.19,21.21,14.16S370.38,436.69,368.41,437.05Z" fill="#8363aa"/>
      <path id="Path_150420" data-name="Path 150420" d="M367.94,434.78c-9-1.51-45.51-6.77-54.54-7.59-.07,0-.08.05,0,.06,8.91,1.7,45.45,6.66,54.53,7.68C368.11,435,368.13,434.81,367.94,434.78Z" fill="#263238"/>
      <path id="Path_150421" data-name="Path 150421" d="M364.44,426.62a7.34,7.34,0,0,0-5.72,1.44A7.16,7.16,0,0,0,356,432.6s.1.07.11,0a8.49,8.49,0,0,1,8.32-5.88.06.06,0,0,0,.01-.1Z" fill="#263238"/>
      <path id="Path_150422" data-name="Path 150422" d="M349.81,416.3c-3.61-.57-8,.11-10.67,2.75-.1.1.05.25.16.21a50.613,50.613,0,0,1,10.51-2.51.23.23,0,0,0,0-.45Z" fill="#263238"/>
      <path id="Path_150423" data-name="Path 150423" d="M352.45,417.79c-3.61-.57-8,.11-10.67,2.75-.1.1.05.25.16.21a50.611,50.611,0,0,1,10.51-2.51.23.23,0,0,0,0-.45Z" fill="#263238"/>
      <path id="Path_150424" data-name="Path 150424" d="M355.09,419.28c-3.61-.57-8,.11-10.67,2.75-.1.1.05.24.16.2a51.075,51.075,0,0,1,10.51-2.5.23.23,0,0,0,0-.45Z" fill="#263238"/>
      <path id="Path_150425" data-name="Path 150425" d="M357.73,420.77c-3.61-.57-8,.11-10.67,2.75-.1.1,0,.24.16.2a50.429,50.429,0,0,1,10.51-2.5.23.23,0,0,0,0-.45Z" fill="#263238"/>
      <path id="Path_150426" data-name="Path 150426" d="M316.93,418.93c-4.06-.57-4.95,5.75-.88,6.32S321,419.5,316.93,418.93Z" fill="#263238"/>
      <path id="Path_150427" data-name="Path 150427" d="M355.1,407.2c-1.61-1.79-4.13-.63-5.49.79a19.21,19.21,0,0,0-4.61,8.78.09.09,0,0,0,.1.12.44.44,0,0,0,.61.39c2.83-1.41,6-2.58,8.35-4.82C355.41,411.15,356.63,408.88,355.1,407.2Zm-5.54,7.06c-1.37.73-2.78,1.38-4.13,2.16.91-1.71,1.73-3.45,2.81-5.07a20.467,20.467,0,0,1,1.67-2.25c1-1.09,4.95-3.6,4.74.39C354.54,411.69,351.2,413.39,349.56,414.26Z" fill="#263238"/>
      <path id="Path_150428" data-name="Path 150428" d="M335.81,416.83c3.08.94,6.46.5,9.63.47a.46.46,0,0,0,.37-.63.09.09,0,0,0,0-.15,19.15,19.15,0,0,0-8.12-5.7c-1.86-.64-4.63-.52-5.25,1.81S334,416.29,335.81,416.83Zm-1.89-2.37c-2-3.46,2.69-3,4-2.52a21.66,21.66,0,0,1,2.51,1.24,57.849,57.849,0,0,1,4.82,3.23c-1.55-.08-3.1,0-4.66,0-1.82-.06-5.59-.05-6.67-1.95Z" fill="#263238"/>
      <path id="Path_150429" data-name="Path 150429" d="M350,414.43l-40.07-6.24s12.44-51.51,14.75-66.92c2-13.49,1.29-65.16.57-68.68-2.47-12.26-1.68-23.44,5.72-33.11h43s-2.49,9.5-6.44,15.93c0,0-4,2.52-5.75,3.52,0,0,1.76,69.5.38,84.33C360.36,362,350,414.43,350,414.43Z" fill="#37474f"/>
      <path id="Path_150430" data-name="Path 150430" d="M348.25,407.14c-5.89-1-4.18-.8-10.08-1.75-2.88-.46-21.84-3.48-24.61-3.43a.06.06,0,0,0,0,.12c2.63.85,21.64,3.53,24.54,3.94,5.91.83,4.22.53,10.14,1.29a.09.09,0,0,0,.01-.17Z" fill="#263238"/>
      <path id="Path_150431" data-name="Path 150431" d="M367.72,254.94a74.337,74.337,0,0,0-10.78,6.38c-.13.09,0,.3.13.21,3.65-2,7.38-4,10.91-6.18a.243.243,0,0,0-.26-.41Z" fill="#263238"/>
      <path id="Path_150432" data-name="Path 150432" d="M362.84,254.38a16.209,16.209,0,0,0-.52,2.27,4.93,4.93,0,0,0-.12,1.83c0,.11.19.1.24,0a6.24,6.24,0,0,0,.6-1.83c.18-.71.38-1.41.54-2.12C363.69,254.09,363,253.93,362.84,254.38Z" fill="#263238"/>
      <path id="Path_150433" data-name="Path 150433" d="M362.49,250.69c.11-.64.21-1.28.33-1.92s.28-1.32.35-2c0-.11.18-.08.16,0-.1.64-.11,1.3-.16,2s-.12,1.3-.18,1.94c-.12,1.21-.33,2.43-.57,3.62a4.28,4.28,0,0,0,1.76-.73,3.34,3.34,0,0,0,.95-1.84c.19-.74.35-1.48.54-2.21a13.62,13.62,0,0,0,.57-2.45c0-.11.17-.07.16,0a26.2,26.2,0,0,1-1,5.17,2.82,2.82,0,0,1-1,1.71,5.52,5.52,0,0,1-2.15.63c-.08.05-.21,0-.2-.1a38.325,38.325,0,0,1,.44-3.82Z" fill="#263238"/>
      <path id="Path_150434" data-name="Path 150434" d="M345,246.45c0-.07-.11-.09-.15,0a6.76,6.76,0,0,0-.36,2.07,15.232,15.232,0,0,1-.52,2.22,8.77,8.77,0,0,1-2.31,3.87c-2.41,2.26-5.64,3.1-8.75,3.86a.1.1,0,0,0,0,.19,14,14,0,0,0,5.43-.85,11.4,11.4,0,0,0,4.19-2.34,7.81,7.81,0,0,0,2.26-4.1,13.842,13.842,0,0,0,.26-2.49v-1.2A3.059,3.059,0,0,0,345,246.45Z" fill="#263238"/>
      <path id="Path_150435" data-name="Path 150435" d="M332.65,243.13c0-.08-.08-.15-.11-.07a56.93,56.93,0,0,0-4.65,13.5,24.941,24.941,0,0,0-.25,7.06c.28,2.47.9,4.87,1.36,7.31a82.157,82.157,0,0,1,1.11,15.51c0,5.24-.1,10.49-.15,15.73-.11,10.47,0,20.94-.29,31.41A92.657,92.657,0,0,1,328,349.16c-1,5.14-2.21,10.25-3.33,15.37q-3.37,15.39-6.58,30.82l-.78,3.8c0,.1.13.13.15,0,2.36-10.18,4.63-20.38,6.91-30.58q1.69-7.64,3.34-15.28a100.172,100.172,0,0,0,2.3-15c.31-5.17.25-10.37.3-15.55l.14-15.64q.06-7.9.11-15.81a142.909,142.909,0,0,0-.4-15.35,65.2,65.2,0,0,0-1.17-7.23,37.492,37.492,0,0,1-1.08-7.73c0-4.94,1.52-9.71,3.28-14.27C331.68,245.52,332.17,244.33,332.65,243.13Z" fill="#263238"/>
      <path id="Path_150436" data-name="Path 150436" d="M362.64,277.43c-.26-6-.32-12.86-.79-18.82a.11.11,0,1,0-.21,0c-.09,10.58.13,22.07.32,32.65s.28,21.17.24,31.75c0,6-.08,11.94,0,17.91a.09.09,0,0,0,.18,0c.52-5.3.78-10.62.93-15.94s.22-10.55.16-15.82C363.34,298.59,363.1,288,362.64,277.43Z" fill="#263238"/>
      <path id="Path_150437" data-name="Path 150437" d="M378.82,253.27c-1.09.68-53.45-8.08-53.64-8.49-.5-1.12,15.64-34.57,24.49-46.39,5.63-7.51,12.77-14,18.72-15.84,4.69-1.47,11.49.92,12.21,3.76C385.89,207.24,379.76,252.67,378.82,253.27Z" fill="#8363aa"/>
      <g id="Group_131118" data-name="Group 131118" opacity="0.1">
        <path id="Path_150438" data-name="Path 150438" d="M327.17,239.58v5.65c-.82-.16-1.4-.28-1.72-.36v-1.18c.14-.41.35-.92.59-1.53l.32-.74C326.6,240.86,326.87,240.25,327.17,239.58Z"/>
        <path id="Path_150439" data-name="Path 150439" d="M330.11,233.27v12.5l-.74-.13V234.82l.12-.26Z"/>
        <path id="Path_150440" data-name="Path 150440" d="M334,225.37v21.09l-1.71-.29v-17.4l.17-.34.36-.73,1.12-2.21Z"/>
        <path id="Path_150441" data-name="Path 150441" d="M337,219.72V247l-.73-.13V221.1c0-.09.09-.17.13-.26Z"/>
        <path id="Path_150442" data-name="Path 150442" d="M340.89,212.5v35.15l-1.71-.29V215.59l.48-.88.41-.74Z"/>
        <path id="Path_150443" data-name="Path 150443" d="M343.83,207.38v40.76l-.73-.12v-39.4c.16-.26.31-.52.45-.77Z"/>
        <path id="Path_150444" data-name="Path 150444" d="M347.75,201.12v47.67l-1.71-.28V203.75l.36-.56Q347.09,202.11,347.75,201.12Z"/>
        <path id="Path_150445" data-name="Path 150445" d="M350.69,197.06v52.22l-.73-.13V198Z"/>
        <path id="Path_150446" data-name="Path 150446" d="M354.61,192.51v57.4l-1.71-.28V194.39l.24-.27c.21-.25.43-.49.65-.73S354.33,192.8,354.61,192.51Z"/>
        <path id="Path_150447" data-name="Path 150447" d="M357.56,189.57v60.82a4.952,4.952,0,0,1-.74-.12v-60A9.516,9.516,0,0,1,357.56,189.57Z"/>
        <path id="Path_150448" data-name="Path 150448" d="M361.48,186.31V251l-1.72-.27V187.65l.47-.39c.32-.25.63-.5.95-.73a2.863,2.863,0,0,1,.3-.22Z"/>
        <path id="Path_150449" data-name="Path 150449" d="M364.42,184.35v67.1l-.74-.11V184.8Z"/>
        <path id="Path_150450" data-name="Path 150450" d="M368.34,182.57V252l-1.71-.25V183.22a15.5,15.5,0,0,1,1.58-.61Z"/>
        <path id="Path_150451" data-name="Path 150451" d="M371.28,182.11v70.37l-.73-.11V182.15a5.853,5.853,0,0,1,.73-.04Z"/>
        <path id="Path_150452" data-name="Path 150452" d="M375.2,182.59V253l-.46-.06c-.39-.05-.81-.1-1.25-.17V182.24a13.633,13.633,0,0,1,1.71.35Z"/>
        <path id="Path_150453" data-name="Path 150453" d="M378.14,183.74V253.3l-.73-.05V183.36C377.66,183.48,377.91,183.61,378.14,183.74Z"/>
        <path id="Path_150454" data-name="Path 150454" d="M382.06,195v33.42c-.06.74-.12,1.48-.17,2.21l-.15,1.71c-.06.75-.13,1.49-.2,2.21a2.62,2.62,0,0,1-.07.74c-.07.75-.14,1.48-.21,2.2s-.12,1.16-.19,1.72c-.08.75-.16,1.49-.24,2.2l-.09.74c-.09.77-.18,1.51-.27,2.21v-58.7a2.189,2.189,0,0,1,.25.6,1.427,1.427,0,0,1,0,.22l.18.73c.16.71.31,1.45.45,2.21.1.56.2,1.13.29,1.71s.21,1.45.31,2.21l.09.73Z"/>
      </g>
      <g id="Group_131119" data-name="Group 131119" opacity="0.11">
        <path id="Path_150455" data-name="Path 150455" d="M379.05,184.32H364.48a21.9,21.9,0,0,1,2.15-1.1,15.5,15.5,0,0,1,1.58-.61h7.08a14.281,14.281,0,0,1,2.12.75c.25.12.5.25.73.38A8.876,8.876,0,0,1,379.05,184.32Z"/>
        <path id="Path_150456" data-name="Path 150456" d="M380.83,187.26h-20.6c.32-.25.63-.5.95-.73h19.47Z"/>
        <path id="Path_150457" data-name="Path 150457" d="M381.57,191.18H355.9c.29-.31.61-.62.92-.91s.49-.48.74-.7l.11-.1h23.61C381.38,190,381.48,190.6,381.57,191.18Z"/>
        <path id="Path_150458" data-name="Path 150458" d="M382,194.12H353.14c.21-.25.43-.49.65-.73h28.09Z"/>
        <path id="Path_150459" data-name="Path 150459" d="M382.34,198h-32.4l.73-.95.59-.73h30.91C382.25,196.89,382.29,197.46,382.34,198Z"/>
        <path id="Path_150460" data-name="Path 150460" d="M382.52,201H347.84c.16-.25.33-.5.5-.74h34.15Z"/>
        <path id="Path_150461" data-name="Path 150461" d="M382.68,204.91H345.32l.72-1.16.36-.56h36.22Z"/>
        <path id="Path_150462" data-name="Path 150462" d="M382.72,207.85H343.55l.28-.47c.06-.09.11-.18.16-.27h38.72C382.72,207.36,382.72,207.6,382.72,207.85Z"/>
        <path id="Path_150463" data-name="Path 150463" d="M382.73,210.06v1.71H341.3c.32-.58.65-1.15,1-1.71Z"/>
        <path id="Path_150464" data-name="Path 150464" d="M382.68,214v.74h-43l.41-.74Z"/>
        <path id="Path_150465" data-name="Path 150465" d="M382.6,216.92a13.971,13.971,0,0,1-.07,1.71h-45c.31-.57.62-1.14.92-1.71Z"/>
        <path id="Path_150466" data-name="Path 150466" d="M382.44,220.84v.73H336l.25-.47c0-.09.09-.17.13-.26Z"/>
        <path id="Path_150467" data-name="Path 150467" d="M382.28,223.78c0,.58-.07,1.14-.1,1.71H334l.06-.12.82-1.59Z"/>
        <path id="Path_150468" data-name="Path 150468" d="M382,227.7v.73H332.49l.36-.73Z"/>
        <path id="Path_150469" data-name="Path 150469" d="M381.81,230.64l-.15,1.71h-51.1l.83-1.71Z"/>
        <path id="Path_150470" data-name="Path 150470" d="M381.46,234.56a2.62,2.62,0,0,1-.07.74H329.15c.07-.16.14-.32.22-.48l.12-.26Z"/>
        <path id="Path_150471" data-name="Path 150471" d="M381.18,237.5c-.06.58-.12,1.16-.19,1.72H327.33c.24-.54.5-1.12.78-1.72Z"/>
        <path id="Path_150472" data-name="Path 150472" d="M380.75,241.42l-.09.74H326l.32-.74Z"/>
        <path id="Path_150473" data-name="Path 150473" d="M380.39,244.37v.3c-.07.49-.13,1-.19,1.41H331.82l-1.71-.31-.74-.13-2.2-.41c-.82-.16-1.4-.28-1.72-.36a.71.71,0,0,1-.27-.09.75.75,0,0,1,.05-.41Z"/>
        <path id="Path_150474" data-name="Path 150474" d="M379.84,248.29a4.28,4.28,0,0,1-.11.73H349.12l-1.37-.23-1.71-.28-1.32-.22Z"/>
        <path id="Path_150475" data-name="Path 150475" d="M379.35,251.23a14.439,14.439,0,0,1-.38,1.71h-4.23c-.39-.05-.81-.1-1.25-.17-.69-.08-1.42-.19-2.21-.29l-.73-.11-2.21-.33-1.71-.25-2.21-.34-.74-.11-.72-.11Z"/>
      </g>
      <path id="Path_150476" data-name="Path 150476" d="M347.64,144.67c-11.27,10.64-28.1,48.33-27.62,56.5.45,7.56,6.56,11.58,11.6,10,11.95-3.76,28.63-16.44,32-18.93,4.77-3.53,7.19-9.57-.6-8.64-8.4,1-15.27,2.12-15.27,2.12S354,174,354,171.13C354,163.9,352.65,140,347.64,144.67Z" fill="#ffc4c0"/>
      <path id="Path_150477" data-name="Path 150477" d="M344.87,146.08l8.37,32.27L349,185s12.76-1.79,16.42-1.82,4.08,3.24,1.57,6.35-29,22.24-36.92,22.41-11.14-6.82-10.89-11.81S331.29,164.39,344.87,146.08Z" fill="#8363aa"/>
      <g id="Group_131120" data-name="Group 131120" opacity="0.1">
        <path id="Path_150478" data-name="Path 150478" d="M320.3,195.32v10.54a9.5,9.5,0,0,1-.39-1,12.9,12.9,0,0,1-.76-3.92,6.1,6.1,0,0,1,0-.74v-.14a11.169,11.169,0,0,1,.38-2.07c.12-.51.28-1.08.46-1.71Z"/>
        <path id="Path_150479" data-name="Path 150479" d="M323.25,187.09v22.64a9.5,9.5,0,0,1-.74-.67V189l.67-1.75S323.22,187.15,323.25,187.09Z"/>
        <path id="Path_150480" data-name="Path 150480" d="M327.17,177.73v33.91a10.84,10.84,0,0,1-1.72-.57V181.69c.18-.43.36-.86.55-1.29l.32-.74Z"/>
        <path id="Path_150481" data-name="Path 150481" d="M330.11,171.39v40.53h-.74V172.8h.07C329.66,172.33,329.88,171.86,330.11,171.39Z"/>
        <path id="Path_150482" data-name="Path 150482" d="M334,163.63V211q-.91.35-1.71.57V166.94a1.738,1.738,0,0,1,.14-.27c.11-.24.24-.48.37-.73.37-.74.76-1.47,1.15-2.21Z"/>
        <path id="Path_150483" data-name="Path 150483" d="M337,158.31v51.38l-.73.33V159.59c.1-.17.2-.34.29-.51S336.83,158.57,337,158.31Z"/>
        <path id="Path_150484" data-name="Path 150484" d="M340.89,151.86v55.8l-.34.19c-.46.26-.92.5-1.37.73v-54q.49-.84,1-1.65c.15-.25.31-.49.47-.74Z"/>
        <path id="Path_150485" data-name="Path 150485" d="M343.83,147.51V206l-.73.42V148.56l.18-.27Z"/>
        <path id="Path_150486" data-name="Path 150486" d="M347.75,156.87V203.6L346,204.66V150.59l.42,1.62.19.74.58,2.21.44,1.71Z"/>
        <path id="Path_150487" data-name="Path 150487" d="M350.69,168.52v13.79l-.19.3-.54.83V165.7l.06.24.19.73Z"/>
        <path id="Path_150488" data-name="Path 150488" d="M350.69,184.74v17l-.73.48V184.84Z"/>
        <path id="Path_150489" data-name="Path 150489" d="M353.24,178.35l-.34.53v-1.84l.11.42Z"/>
        <path id="Path_150490" data-name="Path 150490" d="M354.61,184.23v14.84c-.56.39-1.13.78-1.71,1.16V184.45l1-.13Z"/>
        <path id="Path_150491" data-name="Path 150491" d="M357.56,183.87V197l-.74.53V184Z"/>
        <path id="Path_150492" data-name="Path 150492" d="M361.48,183.44v10.68l-1.72,1.28V183.62Z"/>
        <path id="Path_150493" data-name="Path 150493" d="M364.42,183.2v8.62l-.74.59v-9.16Z"/>
        <path id="Path_150494" data-name="Path 150494" d="M368.34,184.68v2.58h-.08a7.631,7.631,0,0,1-1.27,2.21h0a3.288,3.288,0,0,1-.33.36V183.3a2.49,2.49,0,0,1,1.51,1,1.581,1.581,0,0,1,.17.38Z"/>
      </g>
      <g id="Group_131121" data-name="Group 131121" opacity="0.11">
        <path id="Path_150495" data-name="Path 150495" d="M345.89,150h-3.78c.32-.49.65-1,1-1.45l.18-.27h2.16Z"/>
        <path id="Path_150496" data-name="Path 150496" d="M346.65,153H340.2c.15-.25.31-.49.47-.74h5.79Z"/>
        <path id="Path_150497" data-name="Path 150497" d="M347.67,156.87h-9.86c.34-.58.68-1.15,1-1.71h8.39Z"/>
        <path id="Path_150498" data-name="Path 150498" d="M348.43,159.81H336.12l.12-.22c.1-.17.2-.34.29-.51h11.71Z"/>
        <path id="Path_150499" data-name="Path 150499" d="M349.45,163.73H334v-.1l.87-1.61H349Z"/>
        <path id="Path_150500" data-name="Path 150500" d="M350.21,166.67H332.46c.11-.24.24-.48.37-.73H350Z"/>
        <path id="Path_150501" data-name="Path 150501" d="M351.23,170.59H330.5q.4-.85.84-1.71h19.44Z"/>
        <path id="Path_150502" data-name="Path 150502" d="M352,173.54H329.1c.09-.19.18-.39.28-.59v-.15H351.8Z"/>
        <path id="Path_150503" data-name="Path 150503" d="M353,177.46H327.29c.25-.57.51-1.14.78-1.72h24.49l.34,1.3Z"/>
        <path id="Path_150504" data-name="Path 150504" d="M352.4,179.66l-.48.74H326l.32-.74Z"/>
        <path id="Path_150505" data-name="Path 150505" d="M350.5,182.61l-.54.83-.56.88h-25c.22-.56.46-1.13.7-1.71Z"/>
        <path id="Path_150506" data-name="Path 150506" d="M368.14,184.32H353.9l.71-.09,2.21-.27.74-.09,2.2-.25,1.72-.18c.8-.08,1.55-.15,2.2-.19l.74-.05h1a5.1,5.1,0,0,1,1.24.14,2.49,2.49,0,0,1,1.48.98Z"/>
        <path id="Path_150507" data-name="Path 150507" d="M368.47,186.53a3.242,3.242,0,0,1-.13.49v.24H323.18a.249.249,0,0,1,.07-.17,3.086,3.086,0,0,0,.22-.56Z"/>
        <path id="Path_150508" data-name="Path 150508" d="M367,189.47h0a3.285,3.285,0,0,1-.33.36c-.33.34-.82.79-1.44,1.31H321.71l.63-1.71Z"/>
        <path id="Path_150509" data-name="Path 150509" d="M362.44,193.39l-1,.73H320.69l.24-.73Z"/>
        <path id="Path_150510" data-name="Path 150510" d="M358.49,196.33l-.93.67-.74.53-.73.51H319.53c.12-.51.28-1.08.46-1.71Z"/>
        <path id="Path_150511" data-name="Path 150511" d="M352.88,200.25l-1.11.74H319.15a6.1,6.1,0,0,1,0-.74Z"/>
        <path id="Path_150512" data-name="Path 150512" d="M348.41,203.19l-.66.41L346,204.66c-.13.09-.27.17-.41.25H319.91a12.332,12.332,0,0,1-.49-1.72Z"/>
        <path id="Path_150513" data-name="Path 150513" d="M341.9,207.11l-1,.55-.34.19H321.48a6.87,6.87,0,0,1-.5-.74Z"/>
        <path id="Path_150514" data-name="Path 150514" d="M336.16,210.06c-.74.34-1.46.64-2.13.89s-1.18.42-1.71.57c-.35.1-.69.18-1,.25h-3.46l-.69-.13a10.84,10.84,0,0,1-1.72-.57,9.57,9.57,0,0,1-1.77-1Z"/>
      </g>
      <path id="Path_150515" data-name="Path 150515" d="M348,173.59c-.54-2.21-1.11-4.42-1.68-6.62s-1.16-4.33-1.77-6.48c-.31-1.08-.62-2.15-.95-3.22s-.55-2.12-.95-3.12a.09.09,0,0,0-.16.06c.13,1.14.46,2.29.7,3.41s.46,2.1.71,3.14c.52,2.22,1.07,4.43,1.67,6.63s1.18,4.32,1.81,6.47a60.7,60.7,0,0,0,2,6.31.08.08,0,0,0,.15,0A64.868,64.868,0,0,0,348,173.59Z" fill="#263238"/>
      <path id="Path_150516" data-name="Path 150516" d="M349,185a65.068,65.068,0,0,1-3.7,6.44c-1.26,1.93-2.63,4.18-4.09,6-.1.12-.29.23-.25,0A74.69,74.69,0,0,1,349,185Z" fill="#263238"/>
      <path id="Path_150517" data-name="Path 150517" d="M345.13,205.22c1.41-1,2.84-2,4.27-3l4.31-2.91,4.31-2.89,4.3-2.94c.27-.2.2,0,0,.15-1.07,1-2.8,2.35-4,3.26-1.37,1.07-2.8,2.06-4.24,3s-2.91,1.9-4.41,2.78c-1.29.76-2.82,1.82-4.16,2.51C345.34,205.33,345,205.42,345.13,205.22Z" fill="#263238"/>
      <path id="Path_150518" data-name="Path 150518" d="M361.05,196.67a16.9,16.9,0,0,1-2.73,1.2,16.529,16.529,0,0,1-2.91.73,16.26,16.26,0,0,1,2.74-1.2,27.612,27.612,0,0,1,2.94-.89C361.26,196.48,361.24,196.54,361.05,196.67Z" fill="#263238"/>
      <path id="Path_150519" data-name="Path 150519" d="M378.12,182.68c2.38,1.77,3.11,10.94-1.24,12.18-5.4,1.53-10.53-7.39-11.28-10.18S373,178.84,378.12,182.68Z" fill="#455a64"/>
      <path id="Path_150520" data-name="Path 150520" d="M376,193c-3.1.34-7.71-4.9-9.29-8.89a62.445,62.445,0,0,1,1.35-6.19c.43-2,.87-4.2,1.13-6.25.05-.42,12.48,4.72,12.48,4.72a32.809,32.809,0,0,0-2.22,7.72,4.9,4.9,0,0,0,0,.85s0,.09,0,.15C379.49,186.7,379,192.63,376,193Z" fill="#ffc4c0"/>
      <path id="Path_150521" data-name="Path 150521" d="M381.66,176.35a32.809,32.809,0,0,0-2.22,7.72,5,5,0,0,0,0,.86.561.561,0,0,1,0,.13,10.731,10.731,0,0,1-1.33-.08c-8.19-1-8.52-10.27-8.42-13.28C372,172.36,381.66,176.35,381.66,176.35Z" fill="#263238"/>
      <path id="Path_150522" data-name="Path 150522" d="M368.37,157.06c-1.82,4.44-.64,17.89,2.34,21.14,4.32,4.72,12,5.85,16.17.51,4-5.17,2.19-22.67-1.2-25.68C380.69,148.58,371.07,150.49,368.37,157.06Z" fill="#ffc4c0"/>
      <path id="Path_150523" data-name="Path 150523" d="M370.4,178h0" fill="none" stroke="#ff98b9" stroke-linecap="round" stroke-linejoin="round" stroke-width="0"/>
      <path id="Path_150524" data-name="Path 150524" d="M378.62,166.89a.063.063,0,0,0-.06.08c.1.91.07,2-.72,2.33C378.84,169.12,378.87,167.73,378.62,166.89Z" fill="#263238"/>
      <path id="Path_150525" data-name="Path 150525" d="M377.73,166c-1.46,0-1.33,2.94,0,2.93S379,166,377.73,166Z" fill="#263238"/>
      <path id="Path_150526" data-name="Path 150526" d="M384.08,166.46a.078.078,0,0,1,.08.08c0,.91.17,2,1,2.21v.05C384.15,168.71,384,167.32,384.08,166.46Z" fill="#263238"/>
      <path id="Path_150527" data-name="Path 150527" d="M384.85,165.48c1.46-.18,1.7,2.75.35,2.91S383.63,165.62,384.85,165.48Z" fill="#263238"/>
      <path id="Path_150528" data-name="Path 150528" d="M376.52,164.72c.39-.12.74-.3,1.12-.45a2,2,0,0,0,1.05-.68.64.64,0,0,0-.13-.75,1.55,1.55,0,0,0-1.56-.09,2.27,2.27,0,0,0-1.26,1,.67.67,0,0,0,.78.97Z" fill="#263238"/>
      <path id="Path_150529" data-name="Path 150529" d="M385.92,164a11.781,11.781,0,0,1-1.18-.25,1.93,1.93,0,0,1-1.15-.49.63.63,0,0,1,0-.76,1.55,1.55,0,0,1,1.52-.35,2.25,2.25,0,0,1,1.42.8.66.66,0,0,1-.61,1.05Z" fill="#263238"/>
      <path id="Path_150530" data-name="Path 150530" d="M378.36,175c.23.21.46.49.79.5a2.24,2.24,0,0,0,1-.27v.05a1.21,1.21,0,0,1-1.13.54c-.42-.05-.63-.4-.75-.77C378.26,175,378.33,175,378.36,175Z" fill="#263238"/>
      <path id="Path_150531" data-name="Path 150531" d="M379.2,172.23a3.08,3.08,0,0,0,2.13,1.29,4.13,4.13,0,0,0,1.11,0h.41a.22.22,0,0,0,.17-.21h0a.281.281,0,0,0,0-.09h0v-.08c0-.7-.12-1.76-.12-1.76.26.12,1.59.64,1.55.28a46.312,46.312,0,0,0-1.61-9.31c0-.1-.18-.07-.16,0,.18,2.91.88,5.77,1.11,8.69a5.44,5.44,0,0,0-1.48-.37c-.09,0,.26,2,.24,2.36h0a4.31,4.31,0,0,1-3.25-.85C379.21,172.1,379.14,172.16,379.2,172.23Z" fill="#263238"/>
      <path id="Path_150532" data-name="Path 150532" d="M382,173.18a3.64,3.64,0,0,1-1.42,1.21,1.69,1.69,0,0,1-1,.1c-.73-.16-.78-.82-.67-1.4a4,4,0,0,1,.29-.88,4.75,4.75,0,0,0,2.8.97Z" fill="#263238"/>
      <path id="Path_150533" data-name="Path 150533" d="M380.59,174.39a1.69,1.69,0,0,1-1,.1c-.73-.16-.78-.82-.67-1.4A1.71,1.71,0,0,1,380.59,174.39Z" fill="#ff98b9"/>
      <path id="Path_150534" data-name="Path 150534" d="M387.94,157.53c-4.56,3.47-11.26-1.1-11.26-1.1a5.13,5.13,0,0,1-5,3.51s-.53,8-2.63,8.13c-3.21.14-4.75-10.7-3.85-12.89a5.72,5.72,0,0,1,3.6-2.88,5.28,5.28,0,0,1,2-3.29c2.1-1.78,9.78.1,9.78.1a7,7,0,0,1,1.8-2.71,2,2,0,0,1,2.87.12,4.78,4.78,0,0,0-.67,2c-.26,2.36,1.65,2.26,1.53.14a3.27,3.27,0,0,0-.86-2.14c.87-1.44,2.39-2,3.36-1.27C390.37,146.51,391.73,154.65,387.94,157.53Z" fill="#263238"/>
      <path id="Path_150535" data-name="Path 150535" d="M369.23,168.1s-2.68-4.51-4.7-3.58-.22,7.3,2,8.32a2.33,2.33,0,0,0,3.2-1Z" fill="#ffc4c0"/>
      <path id="Path_150536" data-name="Path 150536" d="M365.09,166.33v.06a5.9,5.9,0,0,1,2.76,3.9,1.28,1.28,0,0,0-1.89-.49c-.05,0,0,.09,0,.08a1.43,1.43,0,0,1,1.53.62,6.509,6.509,0,0,1,.66,1.32c.06.15.33.09.29-.07h0C368.64,169.67,367.27,166.7,365.09,166.33Z" fill="#263238"/>
      <path id="Path_150537" data-name="Path 150537" d="M379.45,184.29l-3.57,7.32-8.67-10.21-2.88,2.86s8.06,15.81,8.17,15.13l3.58-6.27,4.15,4.85.46-11.37Z" fill="#fff"/>
      <path id="Path_150538" data-name="Path 150538" d="M380.78,192.36c0-1.88.07-3.77,0-5.65a.07.07,0,0,0-.13,0c-.5,1.78-.51,9-.65,10.68h0c-.18-.21-3.87-4.27-3.91-4.22-.75,1-3.37,5.55-3.56,6-1.27-2.51-6.19-11.66-7.74-14.06a.07.07,0,0,0-.12.06c1.1,2.63,7.59,14.94,7.71,14.92a75.08,75.08,0,0,0,3.74-6.63c.61.87,4.31,5.42,4.34,5.15a60.58,60.58,0,0,0,.32-6.25Z" fill="#263238"/>
      <path id="Path_150539" data-name="Path 150539" d="M334.52,61.92H165.46a17.26,17.26,0,0,0-17.1,17.42v348a17.27,17.27,0,0,0,17.1,17.42H334.52a17.29,17.29,0,0,0,17.12-17.42v-348a17.28,17.28,0,0,0-17.12-17.42Zm6.42,354.67c0,9.16-6.86,16.57-15.32,16.57H174.38c-8.48,0-15.34-7.41-15.34-16.57V92.53C159,73.87,165.9,73,174.38,73h30.3c1.76,0,3.2,2,3.2,4.48v1.07c0,5.81,3.18,5.83,7.08,5.83H285c3.94,0,7.1,0,7.1-5.83V77.44c0-2.48,1.42-4.48,3.21-4.48H325.6c8.46,0,15.32,2.48,15.32,19.57Z" fill="#263238"/>
      <path id="Path_150540" data-name="Path 150540" d="M340.94,92.53V416.59c0,9.16-6.86,16.57-15.32,16.57H174.38c-8.48,0-15.34-7.41-15.34-16.57V92.53C159,73.87,165.9,73,174.38,73h30.3c1.76,0,3.2,2,3.2,4.48v1.07c0,5.81,3.18,5.83,7.08,5.83H285c3.94,0,7.1,0,7.1-5.83V77.44c0-2.48,1.42-4.48,3.21-4.48H325.6C334.08,73,340.94,75.44,340.94,92.53Z" fill="#fff"/>
      <path id="Path_150541" data-name="Path 150541" d="M171.74,133.57a.19.19,0,0,1,.19-.19h1.58a1.6,1.6,0,0,1,0,3.19h-1.38v2.2a.2.2,0,0,1-.2.19.19.19,0,0,1-.19-.19Zm1.77,2.63a1.24,1.24,0,0,0,1.21-1.22,1.22,1.22,0,0,0-1.21-1.21h-1.38v2.43Z" fill="#263238"/>
      <path id="Path_150542" data-name="Path 150542" d="M176.37,133.57a.2.2,0,0,1,.39,0v5.22a.2.2,0,0,1-.39,0Z" fill="#263238"/>
      <path id="Path_150543" data-name="Path 150543" d="M178.38,137a1.9,1.9,0,0,1,3.79-.15h0a.17.17,0,0,1-.19.17h-3.21a1.53,1.53,0,0,0,1.52,1.5,1.46,1.46,0,0,0,1.26-.71.19.19,0,0,1,.26-.06.2.2,0,0,1,.06.27,1.86,1.86,0,0,1-1.58.89,1.93,1.93,0,0,1-1.91-1.91Zm.41-.31h3a1.52,1.52,0,0,0-1.47-1.28,1.54,1.54,0,0,0-1.53,1.31Z" fill="#263238"/>
      <path id="Path_150544" data-name="Path 150544" d="M186.82,135.25v3.54a.19.19,0,0,1-.38,0v-.59a1.82,1.82,0,0,1-1.44.8,2,2,0,0,1,0-3.92,1.81,1.81,0,0,1,1.47.77v-.58a.19.19,0,0,1,.38,0Zm-.38,1.77a1.47,1.47,0,1,0-1.47,1.57,1.53,1.53,0,0,0,1.47-1.59Z" fill="#263238"/>
      <path id="Path_150545" data-name="Path 150545" d="M188.22,138.16a.19.19,0,0,1,.27,0,2.08,2.08,0,0,0,1.2.45,1.15,1.15,0,0,0,.74-.24.59.59,0,0,0,.3-.47.6.6,0,0,0-.28-.48,1.89,1.89,0,0,0-.84-.29h0a2.22,2.22,0,0,1-.89-.3.82.82,0,0,1-.42-.71,1,1,0,0,1,.42-.77,1.68,1.68,0,0,1,1-.26,2.13,2.13,0,0,1,1.17.42.21.21,0,0,1,0,.28.19.19,0,0,1-.26.05,1.71,1.71,0,0,0-1-.39,1.21,1.21,0,0,0-.74.22.6.6,0,0,0-.25.45.47.47,0,0,0,.22.39,2,2,0,0,0,.8.28h0a2.42,2.42,0,0,1,.95.32.933.933,0,0,1-.01,1.59,1.58,1.58,0,0,1-1,.31,2.44,2.44,0,0,1-1.45-.56.18.18,0,0,1,.07-.29Z" fill="#263238"/>
      <path id="Path_150546" data-name="Path 150546" d="M192.14,137a1.9,1.9,0,0,1,3.79-.15h0a.17.17,0,0,1-.19.17h-3.21a1.53,1.53,0,0,0,1.52,1.5,1.46,1.46,0,0,0,1.26-.71.19.19,0,0,1,.26-.06.2.2,0,0,1,.06.27,1.86,1.86,0,0,1-1.58.89,1.93,1.93,0,0,1-1.91-1.91Zm.41-.31h3a1.52,1.52,0,0,0-1.47-1.28,1.54,1.54,0,0,0-1.53,1.31Z" fill="#263238"/>
      <path id="Path_150547" data-name="Path 150547" d="M199.69,135.26a.2.2,0,0,1,.21-.19.19.19,0,0,1,.18.19v.86a.47.47,0,0,1,.06-.09,1.86,1.86,0,0,1,1.56-1,.18.18,0,0,1,.19.19.19.19,0,0,1-.19.19,1.41,1.41,0,0,0-1.13.64,3.13,3.13,0,0,0-.47.91.12.12,0,0,0,0,.07v1.72a.19.19,0,0,1-.18.19.2.2,0,0,1-.21-.19Z" fill="#263238"/>
      <path id="Path_150548" data-name="Path 150548" d="M206.29,135.25v3.54a.19.19,0,0,1-.19.19.2.2,0,0,1-.19-.19v-.59a1.82,1.82,0,0,1-1.47.78,2,2,0,0,1,0-3.92,1.81,1.81,0,0,1,1.47.77v-.58a.19.19,0,0,1,.19-.19.18.18,0,0,1,.19.19Zm-.38,1.77a1.47,1.47,0,1,0-1.47,1.57,1.52,1.52,0,0,0,1.47-1.59Z" fill="#263238"/>
      <path id="Path_150549" data-name="Path 150549" d="M209.33,135.25a.21.21,0,0,1-.2.19h-.5v2.86a.31.31,0,0,0,.29.29.2.2,0,1,1,0,.39.67.67,0,0,1-.69-.68v-2.86h-.49c-.19,0-.19-.09-.19-.19s0-.19.19-.19h.49v-1.45a.21.21,0,0,1,.19-.2.22.22,0,0,1,.21.2v1.45h.5a.21.21,0,0,1,.2.19Z" fill="#263238"/>
      <path id="Path_150550" data-name="Path 150550" d="M210.56,137a1.9,1.9,0,0,1,3.79-.15h0a.18.18,0,0,1-.19.17h-3.22a1.53,1.53,0,0,0,1.52,1.5,1.49,1.49,0,0,0,1.27-.71.18.18,0,0,1,.25-.06.21.21,0,0,1,.07.27,1.87,1.87,0,0,1-1.59.89,1.93,1.93,0,0,1-1.9-1.91Zm.41-.31h3a1.51,1.51,0,0,0-1.47-1.28,1.53,1.53,0,0,0-1.5,1.31Z" fill="#263238"/>
      <path id="Path_150551" data-name="Path 150551" d="M217.78,135.24a.2.2,0,0,1,.39,0v2.13a1.205,1.205,0,1,0,2.41,0v-2.13a.14.14,0,0,1,0-.09h0a.079.079,0,0,0,.07-.05h.18l.05.06a.16.16,0,0,1,0,.08v3.43a1.85,1.85,0,0,1-1.87,1.84,1.92,1.92,0,0,1-.8-.19.19.19,0,0,1-.08-.25.2.2,0,0,1,.24-.1,1.4,1.4,0,0,0,.64.15,1.47,1.47,0,0,0,1.48-1.45v-.26a1.59,1.59,0,0,1-2.8-1Z" fill="#263238"/>
      <path id="Path_150552" data-name="Path 150552" d="M224.25,135.06a2,2,0,1,1-1.86,2,1.92,1.92,0,0,1,1.86-2Zm0,3.53a1.58,1.58,0,1,0-1.454-1.575A1.58,1.58,0,0,0,224.25,138.59Z" fill="#263238"/>
      <path id="Path_150553" data-name="Path 150553" d="M227.37,135.24a.19.19,0,0,1,.38,0v2.14a1.21,1.21,0,1,0,2.42,0v-2.14a.2.2,0,0,1,.39,0v2.14a1.6,1.6,0,1,1-3.19,0Z" fill="#263238"/>
      <path id="Path_150554" data-name="Path 150554" d="M232.35,135.26a.19.19,0,0,1,.2-.19.18.18,0,0,1,.18.19v.86l.06-.09a1.89,1.89,0,0,1,1.57-1,.19.19,0,0,1,.19.19.2.2,0,0,1-.19.19,1.43,1.43,0,0,0-1.14.64,3.741,3.741,0,0,0-.47.91.12.12,0,0,0,0,.07v1.72a.18.18,0,0,1-.18.19.19.19,0,0,1-.2-.19Z" fill="#263238"/>
      <path id="Path_150555" data-name="Path 150555" d="M238,137a1.9,1.9,0,0,1,3.79-.15h0a.17.17,0,0,1-.19.17h-3.21a1.53,1.53,0,0,0,1.52,1.5,1.46,1.46,0,0,0,1.26-.71.18.18,0,0,1,.25-.06.21.21,0,0,1,.07.27,1.86,1.86,0,0,1-1.58.89A1.93,1.93,0,0,1,238,137Zm.41-.31h3a1.5,1.5,0,0,0-3,0Z" fill="#263238"/>
      <path id="Path_150556" data-name="Path 150556" d="M242.74,138.67l1.2-1.63-1.2-1.65a.21.21,0,0,1,0-.27.2.2,0,0,1,.27,0l1.13,1.55,1.13-1.55a.193.193,0,1,1,.31.23L244.41,137l1.21,1.63a.19.19,0,0,1-.05.27.21.21,0,0,1-.1,0,.19.19,0,0,1-.16-.08l-1.13-1.54-1.13,1.54a.19.19,0,0,1-.15.08.28.28,0,0,1-.12,0,.21.21,0,0,1-.04-.23Z" fill="#263238"/>
      <path id="Path_150557" data-name="Path 150557" d="M247.45,137.08v-1.83a.2.2,0,0,1,.4,0v.57a1.83,1.83,0,0,1,1.48-.76,1.95,1.95,0,0,1,0,3.89,1.83,1.83,0,0,1-1.48-.76v2.24a.2.2,0,1,1-.4,0Zm.4-.08a1.5,1.5,0,1,0,0-.06Z" fill="#263238"/>
      <path id="Path_150558" data-name="Path 150558" d="M252.38,137a1.9,1.9,0,0,1,3.79-.15h0a.18.18,0,0,1-.2.17h-3.21a1.53,1.53,0,0,0,1.52,1.5,1.46,1.46,0,0,0,1.26-.71.191.191,0,0,1,.32.21,1.85,1.85,0,0,1-1.58.89A1.92,1.92,0,0,1,252.38,137Zm.4-.31h3a1.52,1.52,0,0,0-1.47-1.28,1.54,1.54,0,0,0-1.53,1.31Z" fill="#263238"/>
      <path id="Path_150559" data-name="Path 150559" d="M257.36,135.26a.19.19,0,1,1,.38,0v.86a.469.469,0,0,1,.06-.09,1.86,1.86,0,0,1,1.57-1,.19.19,0,0,1,.19.19.2.2,0,0,1-.19.19,1.41,1.41,0,0,0-1.14.64,3.41,3.41,0,0,0-.47.91.12.12,0,0,0,0,.07v1.72a.19.19,0,1,1-.38,0Z" fill="#263238"/>
      <path id="Path_150560" data-name="Path 150560" d="M260.88,134a.2.2,0,0,1,.39,0v.19a.2.2,0,1,1-.39,0Zm0,1.28a.2.2,0,0,1,.39,0v3.54a.2.2,0,0,1-.39,0Z" fill="#263238"/>
      <path id="Path_150561" data-name="Path 150561" d="M262.84,137a1.9,1.9,0,0,1,3.79-.15h0a.18.18,0,0,1-.19.17h-3.22a1.54,1.54,0,0,0,1.52,1.5,1.49,1.49,0,0,0,1.27-.71.18.18,0,0,1,.25-.06.21.21,0,0,1,.07.27,1.87,1.87,0,0,1-1.59.89,1.93,1.93,0,0,1-1.9-1.91Zm.41-.31h3a1.51,1.51,0,0,0-1.47-1.28,1.53,1.53,0,0,0-1.53,1.31Z" fill="#263238"/>
      <path id="Path_150562" data-name="Path 150562" d="M270.79,136.66a1.21,1.21,0,0,0-1.21-1.21,1.23,1.23,0,0,0-1.21,1.21v2.16a.36.36,0,0,1,0,.09.2.2,0,0,1-.15.07h0a.21.21,0,0,1-.13-.11h0v-3.59a.19.19,0,0,1,.38,0v.38a1.56,1.56,0,0,1,1.21-.57,1.59,1.59,0,0,1,1.59,1.59v2.13a.18.18,0,0,1-.19.19.19.19,0,0,1-.19-.19Z" fill="#263238"/>
      <path id="Path_150563" data-name="Path 150563" d="M272.62,137a2,2,0,0,1,2-1.95,2.06,2.06,0,0,1,1.25.43.19.19,0,0,1,0,.27.2.2,0,0,1-.26,0,1.619,1.619,0,1,0-1,2.8,1.62,1.62,0,0,0,1-.34.2.2,0,0,1,.26,0,.19.19,0,0,1,0,.28,2.02,2.02,0,0,1-3.25-1.49Z" fill="#263238"/>
      <path id="Path_150564" data-name="Path 150564" d="M277.06,137a1.9,1.9,0,0,1,3.79-.15h0a.17.17,0,0,1-.19.17h-3.21a1.53,1.53,0,0,0,1.52,1.5,1.46,1.46,0,0,0,1.26-.71.19.19,0,0,1,.26-.06.2.2,0,0,1,.06.27A1.86,1.86,0,0,1,279,139a1.93,1.93,0,0,1-1.94-2Zm.41-.31h3a1.52,1.52,0,0,0-1.47-1.28,1.54,1.54,0,0,0-1.53,1.31Z" fill="#263238"/>
      <path id="Path_150565" data-name="Path 150565" d="M171.78,361.63l2,4.76,1.43-3.37a.22.22,0,0,1,.18-.12.23.23,0,0,1,.2.12l1.41,3.37,2-4.76a.21.21,0,0,1,.27-.1.19.19,0,0,1,.09.26L177.19,367a.21.21,0,0,1-.16.13h0a.19.19,0,0,1-.1,0h0l-1.42-3.39L174,367a.1.1,0,0,1,0,.05h0a.2.2,0,0,1-.11,0,.16.16,0,0,1-.12,0h0a.19.19,0,0,1,0-.1l-2.16-5.13a.192.192,0,0,1,.35-.16Z" fill="#263238"/>
      <path id="Path_150566" data-name="Path 150566" d="M183.34,364.71a1.24,1.24,0,0,0-2.48,0v2.2h0a.14.14,0,0,1-.12.09h-.05a.23.23,0,0,1-.16-.06v-.07a.13.13,0,0,1,0-.06V361.6a.2.2,0,1,1,.4,0v2.06a1.61,1.61,0,0,1,1.23-.58,1.56,1.56,0,0,1,1.64,1.55v2.18a.19.19,0,0,1-.2.19.2.2,0,0,1-.19-.19Z" fill="#263238"/>
      <path id="Path_150567" data-name="Path 150567" d="M189,363.36v3.53a.19.19,0,0,1-.19.19.2.2,0,0,1-.19-.19v-.58a1.84,1.84,0,0,1-1.47.77,2,2,0,0,1,0-3.92,1.84,1.84,0,0,1,1.47.77v-.57a.19.19,0,1,1,.38,0Zm-.38,1.76a1.47,1.47,0,1,0-1.47,1.58,1.52,1.52,0,0,0,1.44-1.58Z" fill="#263238"/>
      <path id="Path_150568" data-name="Path 150568" d="M192,363.36a.21.21,0,0,1-.2.19h-.5v2.85a.31.31,0,0,0,.29.29.22.22,0,0,1,.2.2.21.21,0,0,1-.2.19.67.67,0,0,1-.69-.68v-2.85h-.49c-.19,0-.19-.1-.19-.19s0-.2.19-.2h.49v-1.45a.2.2,0,0,1,.19-.19.21.21,0,0,1,.21.19v1.45h.5A.22.22,0,0,1,192,363.36Z" fill="#263238"/>
      <path id="Path_150569" data-name="Path 150569" d="M196,365.12a2,2,0,0,1,3.26-1.52.18.18,0,0,1,0,.26.2.2,0,0,1-.27,0,1.63,1.63,0,0,0-1-.35,1.58,1.58,0,0,0,0,3.16,1.63,1.63,0,0,0,1-.35.194.194,0,0,1,.27.28,2.07,2.07,0,0,1-1.24.41,2,2,0,0,1-2.02-1.89Z" fill="#263238"/>
      <path id="Path_150570" data-name="Path 150570" d="M204.09,363.36v3.53a.19.19,0,0,1-.19.19.2.2,0,0,1-.19-.19v-.58a1.84,1.84,0,0,1-1.47.77,2,2,0,0,1,0-3.92,1.84,1.84,0,0,1,1.47.77v-.57a.19.19,0,1,1,.38,0Zm-.38,1.76a1.47,1.47,0,1,0-1.47,1.58,1.52,1.52,0,0,0,1.47-1.58Z" fill="#263238"/>
      <path id="Path_150571" data-name="Path 150571" d="M208.48,364.76a1.21,1.21,0,0,0-2.42,0v2.16a.25.25,0,0,1,0,.09.18.18,0,0,1-.15.07h-.05a.17.17,0,0,1-.12-.1h0V363.4a.19.19,0,0,1,.38,0v.38a1.583,1.583,0,0,1,2.8,1.02v2.13a.19.19,0,1,1-.38,0Z" fill="#263238"/>
      <path id="Path_150572" data-name="Path 150572" d="M214.29,367.05a.18.18,0,0,1-.08-.09l-1.47-3.5a.2.2,0,0,1,.1-.25.19.19,0,0,1,.25.11l1.3,3.08.9-2.15a.24.24,0,0,1,.19-.12.21.21,0,0,1,.19.12l.9,2.15,1.3-3.08a.19.19,0,1,1,.35.14L216.76,367a.22.22,0,0,1-.07.09.16.16,0,0,1-.1,0h0a.159.159,0,0,1-.15-.12h0l-.91-2.16-.91,2.16h0a.21.21,0,0,1-.17.12h-.07Z" fill="#263238"/>
      <path id="Path_150573" data-name="Path 150573" d="M219.11,365.13a1.9,1.9,0,1,1,3.79-.14h0a.19.19,0,0,1-.19.18H219.5a1.54,1.54,0,0,0,1.52,1.5,1.49,1.49,0,0,0,1.26-.71.18.18,0,0,1,.25-.07.21.21,0,0,1,.07.27,1.86,1.86,0,0,1-1.58.89,1.93,1.93,0,0,1-1.91-1.92Zm.41-.31h3a1.5,1.5,0,1,0-3,0Z" fill="#263238"/>
      <path id="Path_150574" data-name="Path 150574" d="M229.8,366.32a1.86,1.86,0,0,1-1.51.76,2,2,0,0,1,0-3.92,1.9,1.9,0,0,1,1.51.77v-2.25a.2.2,0,0,1,.39,0v5.21a.2.2,0,0,1-.39,0Zm0-1.12v-.13a1.56,1.56,0,1,0,0,.13Z" fill="#263238"/>
      <path id="Path_150575" data-name="Path 150575" d="M233.61,363.16a2,2,0,1,1-1.85,2,1.92,1.92,0,0,1,1.85-2Zm0,3.54a1.58,1.58,0,1,0-1.47-1.58,1.54,1.54,0,0,0,1.47,1.58Z" fill="#263238"/>
      <path id="Path_150576" data-name="Path 150576" d="M240.71,363.36a.21.21,0,0,1-.19.19H240v2.85a.32.32,0,0,0,.29.29.22.22,0,0,1,.2.2.21.21,0,0,1-.2.19.67.67,0,0,1-.69-.68v-2.85h-.48c-.19,0-.19-.1-.19-.19s0-.2.19-.2h.48v-1.45a.2.2,0,1,1,.4,0v1.45h.51a.21.21,0,0,1,.2.2Z" fill="#263238"/>
      <path id="Path_150577" data-name="Path 150577" d="M244.09,363.16a2,2,0,1,1-1.85,2,1.92,1.92,0,0,1,1.85-2Zm0,3.54a1.58,1.58,0,1,0-1.47-1.58,1.53,1.53,0,0,0,1.47,1.58Z" fill="#263238"/>
      <path id="Path_150578" data-name="Path 150578" d="M249.83,362.08a.2.2,0,0,1,.19-.2.19.19,0,0,1,.2.2v.18a.2.2,0,0,1-.2.21.21.21,0,0,1-.19-.21Zm0,1.28a.2.2,0,1,1,.39,0v3.53a.19.19,0,0,1-.2.19.2.2,0,0,1-.19-.19Z" fill="#263238"/>
      <path id="Path_150579" data-name="Path 150579" d="M257.68,364.76a1.24,1.24,0,0,0-1.22-1.21,1.22,1.22,0,0,0-1.21,1.21v2.18h0a.27.27,0,0,1-.1.11h-.2v-.07h0v-2.14a1.21,1.21,0,1,0-2.41,0v2.14a.19.19,0,0,1-.09.15h-.13a.21.21,0,0,1-.16-.14v-3.58a.19.19,0,0,1,.38,0v.37a1.56,1.56,0,0,1,1.2-.56,1.6,1.6,0,0,1,1.4.83,1.64,1.64,0,0,1,1.41-.83,1.59,1.59,0,0,1,1.59,1.59v2.14a.185.185,0,0,1-.37,0Z" fill="#263238"/>
      <path id="Path_150580" data-name="Path 150580" d="M259.68,365.19v-1.83a.2.2,0,1,1,.39,0v.56a1.88,1.88,0,0,1,1.49-.76,2,2,0,0,1,0,3.9,1.86,1.86,0,0,1-1.49-.77v2.24a.2.2,0,0,1-.39,0Zm.39-.08a1.5,1.5,0,1,0,0-.07Z" fill="#263238"/>
      <path id="Path_150581" data-name="Path 150581" d="M265,363.36a.19.19,0,1,1,.38,0v.87a.53.53,0,0,1,.06-.1,1.88,1.88,0,0,1,1.56-1,.19.19,0,0,1,.2.19.2.2,0,0,1-.2.2,1.38,1.38,0,0,0-1.13.64,3.409,3.409,0,0,0-.47.91.1.1,0,0,0,0,.06v1.72a.19.19,0,1,1-.38,0Z" fill="#263238"/>
      <path id="Path_150582" data-name="Path 150582" d="M269.94,363.16a2,2,0,1,1-1.85,2,1.92,1.92,0,0,1,1.85-2Zm0,3.54a1.58,1.58,0,1,0-1.47-1.58,1.53,1.53,0,0,0,1.47,1.58Z" fill="#263238"/>
      <path id="Path_150583" data-name="Path 150583" d="M274.29,367.05a.22.22,0,0,1-.07-.09l-1.47-3.5a.2.2,0,0,1,.1-.25.18.18,0,0,1,.24.11l1.31,3.08,1.3-3.08a.184.184,0,1,1,.34.14l-1.46,3.47a.31.31,0,0,1-.05.1.15.15,0,0,1-.12.05h-.08Z" fill="#263238"/>
      <path id="Path_150584" data-name="Path 150584" d="M277.17,365.13A1.916,1.916,0,0,1,281,365h0a.19.19,0,0,1-.2.18h-3.21a1.54,1.54,0,0,0,1.52,1.5,1.46,1.46,0,0,0,1.26-.71.19.19,0,1,1,.32.2,1.85,1.85,0,0,1-1.58.89,1.92,1.92,0,0,1-1.94-1.93Zm.4-.31h3a1.51,1.51,0,0,0-1.47-1.27,1.54,1.54,0,0,0-1.53,1.27Z" fill="#263238"/>
      <path id="Path_150585" data-name="Path 150585" d="M284.45,366.27a.19.19,0,0,1,.27,0,2.08,2.08,0,0,0,1.2.46,1.19,1.19,0,0,0,.74-.24.54.54,0,0,0,0-1,2,2,0,0,0-.83-.29h0a2.219,2.219,0,0,1-.89-.3.8.8,0,0,1-.42-.7,1,1,0,0,1,.42-.77,1.68,1.68,0,0,1,1-.27,2.13,2.13,0,0,1,1.17.43.2.2,0,1,1-.21.33,1.66,1.66,0,0,0-1-.4,1.15,1.15,0,0,0-.74.23.6.6,0,0,0-.25.45.47.47,0,0,0,.22.39,2.06,2.06,0,0,0,.8.27h0a2.8,2.8,0,0,1,.95.32.93.93,0,0,1,0,1.59,1.58,1.58,0,0,1-1,.31,2.38,2.38,0,0,1-1.45-.56.17.17,0,0,1,.02-.25Z" fill="#263238"/>
      <path id="Path_150586" data-name="Path 150586" d="M288.38,365.13a1.9,1.9,0,1,1,3.79-.14h0a.19.19,0,0,1-.2.18h-3.21a1.54,1.54,0,0,0,1.52,1.5,1.46,1.46,0,0,0,1.26-.71.2.2,0,0,1,.26-.07.21.21,0,0,1,.06.27,1.85,1.85,0,0,1-1.58.89A1.92,1.92,0,0,1,288.38,365.13Zm.4-.31h3a1.51,1.51,0,0,0-1.47-1.27,1.54,1.54,0,0,0-1.53,1.27Z" fill="#263238"/>
      <path id="Path_150587" data-name="Path 150587" d="M293.36,363.36a.19.19,0,1,1,.38,0v.87a.531.531,0,0,1,.06-.1,1.88,1.88,0,0,1,1.57-1,.19.19,0,0,1,.19.19.2.2,0,0,1-.19.2,1.39,1.39,0,0,0-1.14.64,3.409,3.409,0,0,0-.47.91.1.1,0,0,0,0,.06v1.72a.19.19,0,1,1-.38,0Z" fill="#263238"/>
      <path id="Path_150588" data-name="Path 150588" d="M298.13,367.05a.22.22,0,0,1-.07-.09l-1.47-3.5a.2.2,0,0,1,.1-.25.18.18,0,0,1,.24.11l1.31,3.08,1.3-3.08a.184.184,0,1,1,.34.14l-1.46,3.47a.31.31,0,0,1-.05.1.15.15,0,0,1-.12.05h-.08Z" fill="#263238"/>
      <path id="Path_150589" data-name="Path 150589" d="M301.54,362.08a.19.19,0,0,1,.19-.2.2.2,0,0,1,.2.2v.18a.21.21,0,0,1-.2.21.2.2,0,0,1-.19-.21Zm0,1.28a.2.2,0,1,1,.39,0v3.53a.2.2,0,0,1-.2.19.19.19,0,0,1-.19-.19Z" fill="#263238"/>
      <path id="Path_150590" data-name="Path 150590" d="M303.5,365.12a2,2,0,0,1,3.25-1.56.18.18,0,0,1,0,.26.19.19,0,0,1-.26,0,1.63,1.63,0,0,0-1-.35,1.58,1.58,0,1,0,0,3.16,1.63,1.63,0,0,0,1-.35.194.194,0,0,1,.22.32,2.06,2.06,0,0,1-1.23.41A2,2,0,0,1,303.5,365.12Z" fill="#263238"/>
      <path id="Path_150591" data-name="Path 150591" d="M307.94,365.13a1.9,1.9,0,1,1,3.79-.14h0a.19.19,0,0,1-.19.18h-3.21a1.54,1.54,0,0,0,1.52,1.5,1.47,1.47,0,0,0,1.26-.71.18.18,0,0,1,.25-.07.21.21,0,0,1,.07.27,1.86,1.86,0,0,1-1.58.89,1.93,1.93,0,0,1-1.91-1.92Zm.41-.31h3a1.5,1.5,0,1,0-3,0Z" fill="#263238"/>
      <path id="Path_150592" data-name="Path 150592" d="M313.69,364.79h0a.18.18,0,0,1,.18-.19,1.36,1.36,0,0,0,0-2.71,1.34,1.34,0,0,0-1.17.68.18.18,0,0,1-.25.06.17.17,0,0,1-.07-.25,1.757,1.757,0,1,1,1.68,2.58v.86a.19.19,0,0,1-.19.18.18.18,0,0,1-.18-.18Zm0,1.93a.19.19,0,0,1,.18-.19.2.2,0,0,1,.19.19v.18a.19.19,0,0,1-.19.18.18.18,0,0,1-.18-.18Z" fill="#263238"/>
      <path id="Path_150593" data-name="Path 150593" d="M340.94,92.53v24.18H159V92.53C159,73.87,165.9,73,174.38,73h30.3c1.76,0,3.2,2,3.2,4.48v1.07c0,5.81,3.18,5.83,7.08,5.83H285c3.94,0,7.1,0,7.1-5.83V77.44c0-2.48,1.42-4.48,3.21-4.48H325.6C334.08,73,340.94,75.44,340.94,92.53Z" fill="#8363aa"/>
      <g id="freepik--u5Zjqx--inject-13">
        <path id="Path_150594" data-name="Path 150594" d="M199.45,80.24l-.29.29c-.06,0-.11.11-.17.17a3.9,3.9,0,0,0-2.82-1.17,3.86,3.86,0,0,0-2.82,1.17l-.16-.17-.29-.29h0l.37-.32a4.059,4.059,0,0,1,.86-.55,4.181,4.181,0,0,1,1.13-.38,1.408,1.408,0,0,0,.57-.08h.88a4.509,4.509,0,0,1,1,.25,4.58,4.58,0,0,1,.71.33,4.48,4.48,0,0,1,.67.47l.31.28Z" fill="#fff"/>
        <path id="Path_150595" data-name="Path 150595" d="M194.27,81.62c-.15-.16-.3-.31-.46-.46a3.32,3.32,0,0,1,4.71,0l-.46.46a2.68,2.68,0,0,0-3.79,0Z" fill="#fff"/>
        <path id="Path_150596" data-name="Path 150596" d="M197.6,82.08l-.46.46a1.31,1.31,0,0,0-1-.4,1.35,1.35,0,0,0-1,.4l-.46-.46a2,2,0,0,1,2.92,0Z" fill="#fff"/>
        <path id="Path_150597" data-name="Path 150597" d="M196.58,83a.41.41,0,0,1-.41.41.42.42,0,1,1,0-.83.41.41,0,0,1,.41.42Z" fill="#fff"/>
      </g>
      <path id="Path_150598" data-name="Path 150598" d="M170.9,81.12a1.21,1.21,0,1,1,1.21,1.21,1.21,1.21,0,0,1-1.21-1.21Z" fill="#fff"/>
      <path id="Path_150599" data-name="Path 150599" d="M174.7,81.12a1.21,1.21,0,1,1,1.21,1.21A1.21,1.21,0,0,1,174.7,81.12Z" fill="#fff"/>
      <path id="Path_150600" data-name="Path 150600" d="M178.5,81.12a1.2,1.2,0,1,1,.348.855,1.21,1.21,0,0,1-.348-.855Z" fill="#fff"/>
      <path id="Path_150601" data-name="Path 150601" d="M182.3,81.12a1.2,1.2,0,1,1,.348.855A1.21,1.21,0,0,1,182.3,81.12Z" fill="#fff"/>
      <path id="Path_150602" data-name="Path 150602" d="M186.09,81.12a1.21,1.21,0,1,1,1.21,1.21A1.21,1.21,0,0,1,186.09,81.12Z" fill="#fff"/>
      <path id="Path_150603" data-name="Path 150603" d="M327.3,83.75h-9.82V79.21h9.82Zm-9.32-.5h8.82V79.71H318Z" fill="#fff"/>
      <rect id="Rectangle_110149" data-name="Rectangle 110149" width="6.33" height="3" transform="translate(318.3 79.98)" fill="#fff"/>
      <rect id="Rectangle_110150" data-name="Rectangle 110150" width="0.87" height="2.43" transform="translate(327.3 80.27)" fill="#fff"/>
      <path id="Path_150604" data-name="Path 150604" d="M194.56,105.74a4,4,0,0,1,4-4,4.1,4.1,0,0,1,2.54.86.65.65,0,0,1,.11.88.64.64,0,0,1-.88.12,2.78,2.78,0,0,0-1.77-.6,2.91,2.91,0,0,0-2,.79,2.71,2.71,0,0,0-.81,1.91,2.68,2.68,0,0,0,.81,1.92,2.91,2.91,0,0,0,2,.79,2.81,2.81,0,0,0,1.77-.6.631.631,0,0,1,.77,1,4.1,4.1,0,0,1-2.54.86,4,4,0,0,1-4-3.931Z" fill="#fff"/>
      <path id="Path_150605" data-name="Path 150605" d="M206.57,109.71a3.18,3.18,0,0,1-3.18-3.18v-3.92a.61.61,0,1,1,1.22,0v3.92a2,2,0,0,0,3.92,0v-3.92a.61.61,0,0,1,.62-.61.6.6,0,0,1,.6.61v3.92a3.19,3.19,0,0,1-3.18,3.18Z" fill="#fff"/>
      <path id="Path_150606" data-name="Path 150606" d="M212.09,107.79a.59.59,0,0,1,.81-.08,3.56,3.56,0,0,0,2.1.85,2.3,2.3,0,0,0,1.37-.41,1,1,0,0,0,.48-.79.68.68,0,0,0-.1-.35,1.14,1.14,0,0,0-.33-.33,4.37,4.37,0,0,0-1.51-.52h0a5.9,5.9,0,0,1-1.42-.43,2.3,2.3,0,0,1-1-.85,1.69,1.69,0,0,1-.26-.91,2,2,0,0,1,.88-1.6,3.23,3.23,0,0,1,1.91-.59,4.38,4.38,0,0,1,2.4.88.57.57,0,0,1,.15.79.55.55,0,0,1-.78.16,3.21,3.21,0,0,0-1.77-.7,2.12,2.12,0,0,0-1.24.37.88.88,0,0,0-.41.69.57.57,0,0,0,.07.31,1.191,1.191,0,0,0,.3.29,3.78,3.78,0,0,0,1.38.48h0a6.46,6.46,0,0,1,1.52.46,2.61,2.61,0,0,1,1.1.92,1.8,1.8,0,0,1,.26.93,2.14,2.14,0,0,1-.95,1.71,3.44,3.44,0,0,1-2,.62,4.72,4.72,0,0,1-2.82-1.1.59.59,0,0,1-.14-.8Z" fill="#fff"/>
      <path id="Path_150607" data-name="Path 150607" d="M224.22,103.23h-1.75v5.87a.61.61,0,1,1-1.21,0v-5.87h-1.74a.62.62,0,0,1-.61-.62.61.61,0,0,1,.61-.61h4.7a.6.6,0,0,1,.6.61.62.62,0,0,1-.6.62Z" fill="#fff"/>
      <path id="Path_150608" data-name="Path 150608" d="M232.1,103a4,4,0,0,1,0,5.57,3.6,3.6,0,0,1-2.63,1.18,3.73,3.73,0,0,1-2.69-1.18,4.1,4.1,0,0,1,0-5.57,3.66,3.66,0,0,1,2.69-1.18A3.52,3.52,0,0,1,232.1,103Zm-.14,2.78a2.85,2.85,0,0,0-.75-1.92,2.38,2.38,0,0,0-3.52,0,2.8,2.8,0,0,0-.75,1.92,2.77,2.77,0,0,0,.75,1.92,2.36,2.36,0,0,0,3.52,0,2.81,2.81,0,0,0,.79-1.96Z" fill="#fff"/>
      <path id="Path_150609" data-name="Path 150609" d="M241.56,102.61v6.49a.62.62,0,0,1-.61.61.61.61,0,0,1-.61-.61v-4.63l-1.58,2.2a.62.62,0,0,1-.5.25h0a.62.62,0,0,1-.5-.25l-1.58-2.2v4.63a.61.61,0,0,1-.61.61.62.62,0,0,1-.61-.61v-6.49a.62.62,0,0,1,.61-.61h0a.58.58,0,0,1,.48.26l2.19,3,2.19-3a.6.6,0,0,1,.5-.26h0A.63.63,0,0,1,241.56,102.61Z" fill="#fff"/>
      <path id="Path_150610" data-name="Path 150610" d="M243.67,109.1v-6.49a.61.61,0,0,1,.61-.61h3.6a.61.61,0,0,1,.6.61.62.62,0,0,1-.6.62h-3v2h2.56a.61.61,0,0,1,0,1.22H244.9v2h3a.62.62,0,0,1,0,1.23h-3.57a.61.61,0,0,1-.66-.58Z" fill="#fff"/>
      <path id="Path_150611" data-name="Path 150611" d="M255.51,108.79a.6.6,0,0,1-.38.77,1.08,1.08,0,0,1-.25,0h0a.83.83,0,0,1-.43-.13,1.07,1.07,0,0,1-.35-.38,3,3,0,0,1-.23-1.32.87.87,0,0,0-.13-.47.92.92,0,0,0-.33-.32,1.93,1.93,0,0,0-.62-.27H251.5v2.39a.62.62,0,0,1-.62.61.61.61,0,0,1-.61-.61v-6.49a.61.61,0,0,1,.61-.61h2a2.35,2.35,0,0,1,2.35,2.37,2.31,2.31,0,0,1-.86,1.8,1.69,1.69,0,0,1,.39.41,2.1,2.1,0,0,1,.36,1.19,2.35,2.35,0,0,0,0,.65.56.56,0,0,1,.39.41ZM254,104.37a1.13,1.13,0,0,0-1.13-1.14h-1.35v2.26h1.35a1.13,1.13,0,0,0,1.13-1.12Z" fill="#fff"/>
      <path id="Path_150612" data-name="Path 150612" d="M260.35,107.79a.58.58,0,0,1,.8-.08,3.59,3.59,0,0,0,2.1.85,2.33,2.33,0,0,0,1.38-.41,1,1,0,0,0,.47-.79.6.6,0,0,0-.1-.35.93.93,0,0,0-.33-.33,4.23,4.23,0,0,0-1.5-.52h0a5.82,5.82,0,0,1-1.41-.43,2.33,2.33,0,0,1-1-.85,1.78,1.78,0,0,1-.25-.91,2,2,0,0,1,.88-1.6,3.22,3.22,0,0,1,1.9-.59,4.32,4.32,0,0,1,2.4.88.59.59,0,0,1,.16.79.56.56,0,0,1-.79.16,3.21,3.21,0,0,0-1.77-.7,2.11,2.11,0,0,0-1.23.37.87.87,0,0,0-.42.69.49.49,0,0,0,.08.31.92.92,0,0,0,.3.29,3.71,3.71,0,0,0,1.37.48h0a6.321,6.321,0,0,1,1.52.46,2.55,2.55,0,0,1,1.1.92,1.72,1.72,0,0,1,.27.93,2.14,2.14,0,0,1-.95,1.71,3.48,3.48,0,0,1-2,.62,4.71,4.71,0,0,1-2.81-1.1A.58.58,0,0,1,260.35,107.79Z" fill="#fff"/>
      <path id="Path_150613" data-name="Path 150613" d="M267.93,109.1v-6.49a.6.6,0,0,1,.6-.61h3.6a.62.62,0,0,1,.61.61.63.63,0,0,1-.61.62h-3v2h2.56a.61.61,0,0,1,0,1.22h-2.56v2h3a.62.62,0,0,1,0,1.23h-3.56a.6.6,0,0,1-.64-.58Z" fill="#fff"/>
      <path id="Path_150614" data-name="Path 150614" d="M279.77,108.79a.61.61,0,0,1-.39.77.89.89,0,0,1-.24,0h0a.81.81,0,0,1-.43-.13,1,1,0,0,1-.35-.38,2.89,2.89,0,0,1-.23-1.32,1,1,0,0,0-.14-.47.79.79,0,0,0-.33-.32,1.91,1.91,0,0,0-.61-.27h-1.3v2.39a.62.62,0,0,1-.62.61.6.6,0,0,1-.6-.61v-6.49a.6.6,0,0,1,.6-.61h2a2.36,2.36,0,0,1,2.36,2.37,2.31,2.31,0,0,1-.86,1.8,1.87,1.87,0,0,1,.38.41,2.1,2.1,0,0,1,.37,1.19,3.061,3.061,0,0,0,0,.65.58.58,0,0,1,.39.41Zm-1.54-4.42a1.13,1.13,0,0,0-1.14-1.14h-1.35v2.26h1.35A1.13,1.13,0,0,0,278.23,104.37Z" fill="#fff"/>
      <path id="Path_150615" data-name="Path 150615" d="M283.83,109.6a.2.2,0,0,0-.07-.06h0l-.06-.07h0a.41.41,0,0,0-.05-.09l-2.7-6.42a.6.6,0,1,1,1.11-.46l2.15,5.09,2.14-5.09a.61.61,0,1,1,1.13.46l-2.72,6.42a.41.41,0,0,1-.05.09h0l-.05.07h0a.2.2,0,0,0-.07.06h-.18a.26.26,0,0,1-.11,0,.2.2,0,0,1-.11,0h-.09l-.1-.06Z" fill="#fff"/>
      <path id="Path_150616" data-name="Path 150616" d="M289.1,102.61a.61.61,0,0,1,.61-.61.62.62,0,0,1,.62.61v6.49a.62.62,0,0,1-.62.61.61.61,0,0,1-.61-.61Z" fill="#fff"/>
      <path id="Path_150617" data-name="Path 150617" d="M292,105.74a4,4,0,0,1,4-4,4.1,4.1,0,0,1,2.54.86.65.65,0,0,1,.11.88.64.64,0,0,1-.88.12A2.77,2.77,0,0,0,296,103a2.93,2.93,0,0,0-2,.79,2.7,2.7,0,0,0-.8,1.91,2.67,2.67,0,0,0,.8,1.92,2.93,2.93,0,0,0,2,.79,2.78,2.78,0,0,0,1.77-.6.631.631,0,1,1,.77,1,4.1,4.1,0,0,1-2.54.86,4,4,0,0,1-4-3.931Z" fill="#fff"/>
      <path id="Path_150618" data-name="Path 150618" d="M300.86,109.1v-6.49a.61.61,0,0,1,.61-.61h3.6a.62.62,0,0,1,.6.61.63.63,0,0,1-.6.62h-3v2h2.57a.61.61,0,1,1,0,1.22h-2.57v2h3a.62.62,0,0,1,0,1.23H301.5a.61.61,0,0,1-.64-.58Z" fill="#fff"/>
      <path id="Path_150619" data-name="Path 150619" d="M176.28,110.7l-5.37-5.03,5.37-5.03.83.88-4.42,4.15,4.42,4.15Z" fill="#fff"/>
      <path id="Path_150620" data-name="Path 150620" d="M259.55,77.08H240.44a1.18,1.18,0,0,1-1.18-1.18h0a1.18,1.18,0,0,1,1.18-1.18h19.11a1.18,1.18,0,0,1,1.18,1.18h0A1.18,1.18,0,0,1,259.55,77.08Z" fill="#fff"/>
      <rect id="Rectangle_110151" data-name="Rectangle 110151" width="88.82" height="4.39" transform="translate(176.69 152.73)" fill="#dbdbdb"/>
      <rect id="Rectangle_110152" data-name="Rectangle 110152" width="116.7" height="4.39" transform="translate(176.69 161.23)" fill="#dbdbdb"/>
      <circle id="Ellipse_796" data-name="Ellipse 796" cx="11.53" cy="11.53" r="11.53" transform="matrix(0.731, -0.682, 0.682, 0.731, 171.924, 182.333)" fill="#8363aa"/>
      <path id="Path_150621" data-name="Path 150621" d="M195.35,180.63a1.63,1.63,0,1,1-1.62-1.63,1.63,1.63,0,0,1,1.62,1.63Z" fill="#37474f"/>
      <path id="Path_150622" data-name="Path 150622" d="M184.34,180.63a1.63,1.63,0,1,1-1.62-1.63,1.63,1.63,0,0,1,1.62,1.63Z" fill="#37474f"/>
      <path id="Path_150623" data-name="Path 150623" d="M191.15,179.92a2.93,2.93,0,0,1-5.21,1.84,3,3,0,0,1-.65-1.84Z" fill="#37474f"/>
      <path id="Path_150624" data-name="Path 150624" d="M190.5,181.76a2.93,2.93,0,0,1-4.56,0A3.48,3.48,0,0,1,190.5,181.76Z" fill="#ffc4c0"/>
      <path id="Path_150625" data-name="Path 150625" d="M230.41,182.91a11.53,11.53,0,1,1-11.53-11.53A11.53,11.53,0,0,1,230.41,182.91Z" fill="#ebebeb"/>
      <path id="Path_150626" data-name="Path 150626" d="M226,180.63a1.63,1.63,0,1,1-1.62-1.63,1.63,1.63,0,0,1,1.62,1.63Z" fill="#37474f"/>
      <path id="Path_150627" data-name="Path 150627" d="M215,180.63a1.63,1.63,0,1,1-1.62-1.63,1.63,1.63,0,0,1,1.62,1.63Z" fill="#37474f"/>
      <path id="Path_150628" data-name="Path 150628" d="M216,179.92a3.68,3.68,0,0,0,1.05,1.77,2.86,2.86,0,0,0,1.84.62,2.79,2.79,0,0,0,1.83-.59,4,4,0,0,0,1.15-1.73,3.15,3.15,0,0,1-.86,2,2.67,2.67,0,0,1-1,.63,3.27,3.27,0,0,1-1.15.19,3.39,3.39,0,0,1-1.14-.21,2.71,2.71,0,0,1-1-.65,2.91,2.91,0,0,1-.72-2.03Z" fill="#37474f"/>
      <circle id="Ellipse_797" data-name="Ellipse 797" cx="11.53" cy="11.53" r="11.53" transform="translate(233.457 180.186) rotate(-35.46)" fill="#ebebeb"/>
      <path id="Path_150629" data-name="Path 150629" d="M256.67,180.63a1.63,1.63,0,1,1-1.62-1.63,1.63,1.63,0,0,1,1.62,1.63Z" fill="#37474f"/>
      <path id="Path_150630" data-name="Path 150630" d="M245.66,180.63a1.63,1.63,0,1,1-.488-1.163A1.63,1.63,0,0,1,245.66,180.63Z" fill="#37474f"/>
      <path id="Path_150631" data-name="Path 150631" d="M246.39,181.07a21.69,21.69,0,0,1,6.3,0,21.691,21.691,0,0,1-6.3,0Z" fill="#37474f"/>
      <circle id="Ellipse_798" data-name="Ellipse 798" cx="11.53" cy="11.53" r="11.53" transform="translate(264.744 188.091) rotate(-63.43)" fill="#ebebeb"/>
      <path id="Path_150632" data-name="Path 150632" d="M287.33,180.63a1.63,1.63,0,1,1-1.62-1.63A1.63,1.63,0,0,1,287.33,180.63Z" fill="#37474f"/>
      <path id="Path_150633" data-name="Path 150633" d="M276.32,180.63A1.63,1.63,0,1,1,274.7,179a1.63,1.63,0,0,1,1.62,1.63Z" fill="#37474f"/>
      <path id="Path_150634" data-name="Path 150634" d="M277.27,181.39a3.93,3.93,0,0,1,2.93-1.15,4.67,4.67,0,0,1,1.58.31,4.25,4.25,0,0,1,1.36.84c-.53-.11-1-.24-1.5-.32a9,9,0,0,0-1.45-.13,7.919,7.919,0,0,0-1.45.1,9.187,9.187,0,0,0-1.47.35Z" fill="#37474f"/>
      <circle id="Ellipse_799" data-name="Ellipse 799" cx="11.53" cy="11.53" r="11.53" transform="translate(294.554 182.905) rotate(-45)" fill="#ebebeb"/>
      <path id="Path_150635" data-name="Path 150635" d="M318,180.63a1.63,1.63,0,1,1-1.62-1.63,1.63,1.63,0,0,1,1.62,1.63Z" fill="#37474f"/>
      <path id="Path_150636" data-name="Path 150636" d="M307,180.63a1.63,1.63,0,1,1-1.62-1.63,1.63,1.63,0,0,1,1.62,1.63Z" fill="#37474f"/>
      <path id="Path_150637" data-name="Path 150637" d="M313.8,182.85a3.62,3.62,0,0,0-1.06-1.76,2.81,2.81,0,0,0-1.83-.63,2.76,2.76,0,0,0-1.84.6,4,4,0,0,0-1.14,1.72,3.11,3.11,0,0,1,.85-2,2.75,2.75,0,0,1,1-.63,3.3,3.3,0,0,1,1.15-.19,3.49,3.49,0,0,1,1.15.21,2.67,2.67,0,0,1,1,.65A2.92,2.92,0,0,1,313.8,182.85Z" fill="#37474f"/>
      <rect id="Rectangle_110153" data-name="Rectangle 110153" width="54.72" height="4.39" transform="translate(176.69 204.08)" fill="#dbdbdb"/>
      <rect id="Rectangle_110154" data-name="Rectangle 110154" width="88.82" height="4.39" transform="translate(176.69 212.58)" fill="#dbdbdb"/>
      <circle id="Ellipse_800" data-name="Ellipse 800" cx="11.53" cy="11.53" r="11.53" transform="matrix(0.731, -0.682, 0.682, 0.731, 171.925, 233.674)" fill="#ebebeb"/>
      <path id="Path_150638" data-name="Path 150638" d="M195.35,232a1.63,1.63,0,1,1-1.62-1.62,1.63,1.63,0,0,1,1.62,1.62Z" fill="#37474f"/>
      <path id="Path_150639" data-name="Path 150639" d="M184.34,232a1.63,1.63,0,1,1-1.62-1.62,1.63,1.63,0,0,1,1.62,1.62Z" fill="#37474f"/>
      <path id="Path_150640" data-name="Path 150640" d="M191.15,231.27a2.93,2.93,0,0,1-5.86,0Z" fill="#37474f"/>
      <path id="Path_150641" data-name="Path 150641" d="M190.5,233.1a2.93,2.93,0,0,1-4.56,0,3.51,3.51,0,0,1,4.56,0Z" fill="#c7c7c7"/>
      <path id="Path_150642" data-name="Path 150642" d="M230.41,234.25a11.53,11.53,0,1,1-11.53-11.53A11.53,11.53,0,0,1,230.41,234.25Z" fill="#ebebeb"/>
      <path id="Path_150643" data-name="Path 150643" d="M226,232a1.63,1.63,0,1,1-1.62-1.62A1.63,1.63,0,0,1,226,232Z" fill="#37474f"/>
      <path id="Path_150644" data-name="Path 150644" d="M215,232a1.63,1.63,0,1,1-1.62-1.62A1.63,1.63,0,0,1,215,232Z" fill="#37474f"/>
      <path id="Path_150645" data-name="Path 150645" d="M216,231.27a3.65,3.65,0,0,0,1,1.73,2.81,2.81,0,0,0,1.84.62,2.69,2.69,0,0,0,1.83-.59,4,4,0,0,0,1.15-1.72,3.12,3.12,0,0,1-.86,2,2.69,2.69,0,0,1-1,.64,3.259,3.259,0,0,1-1.15.18,3.39,3.39,0,0,1-1.14-.21,2.59,2.59,0,0,1-1-.65,2.89,2.89,0,0,1-.67-2Z" fill="#37474f"/>
      <circle id="Ellipse_801" data-name="Ellipse 801" cx="11.487" cy="11.487" r="11.487" transform="translate(232.356 230.547) rotate(-35.605)" fill="#ebebeb"/>
      <path id="Path_150646" data-name="Path 150646" d="M256.67,232a1.63,1.63,0,1,1-1.62-1.62,1.63,1.63,0,0,1,1.62,1.62Z" fill="#37474f"/>
      <path id="Path_150647" data-name="Path 150647" d="M245.66,232a1.63,1.63,0,1,1-1.62-1.62,1.63,1.63,0,0,1,1.62,1.62Z" fill="#37474f"/>
      <path id="Path_150648" data-name="Path 150648" d="M246.39,232.41a21.69,21.69,0,0,1,6.3,0,18.571,18.571,0,0,1-3.15.24,19.658,19.658,0,0,1-3.15-.24Z" fill="#37474f"/>
      <circle id="Ellipse_802" data-name="Ellipse 802" cx="11.53" cy="11.53" r="11.53" transform="translate(264.742 239.435) rotate(-63.43)" fill="#ffc4c0"/>
      <path id="Path_150649" data-name="Path 150649" d="M287.33,232a1.63,1.63,0,1,1-1.62-1.62,1.63,1.63,0,0,1,1.62,1.62Z" fill="#37474f"/>
      <path id="Path_150650" data-name="Path 150650" d="M276.32,232a1.63,1.63,0,1,1-1.62-1.62,1.63,1.63,0,0,1,1.62,1.62Z" fill="#37474f"/>
      <path id="Path_150651" data-name="Path 150651" d="M277.27,232.73a4,4,0,0,1,2.93-1.15,4.45,4.45,0,0,1,1.58.32,4.22,4.22,0,0,1,1.36.83c-.53-.11-1-.23-1.5-.31a8.821,8.821,0,0,0-2.9,0A9.191,9.191,0,0,0,277.27,232.73Z" fill="#37474f"/>
      <circle id="Ellipse_803" data-name="Ellipse 803" cx="11.53" cy="11.53" r="11.53" transform="translate(294.557 234.248) rotate(-45)" fill="#ebebeb"/>
      <path id="Path_150652" data-name="Path 150652" d="M318,232a1.63,1.63,0,1,1-1.62-1.62A1.63,1.63,0,0,1,318,232Z" fill="#37474f"/>
      <path id="Path_150653" data-name="Path 150653" d="M307,232a1.63,1.63,0,1,1-1.62-1.62A1.63,1.63,0,0,1,307,232Z" fill="#37474f"/>
      <path id="Path_150654" data-name="Path 150654" d="M313.8,234.19a3.67,3.67,0,0,0-1.06-1.76,2.8,2.8,0,0,0-1.83-.62,2.7,2.7,0,0,0-1.84.59,4.06,4.06,0,0,0-1.14,1.72,3.06,3.06,0,0,1,.85-2,2.65,2.65,0,0,1,1-.64,3.29,3.29,0,0,1,1.15-.18,3.49,3.49,0,0,1,1.15.21,2.55,2.55,0,0,1,1,.65,2.9,2.9,0,0,1,.72,2.03Z" fill="#37474f"/>
      <rect id="Rectangle_110155" data-name="Rectangle 110155" width="103.51" height="4.39" transform="translate(176.69 255.42)" fill="#dbdbdb"/>
      <rect id="Rectangle_110156" data-name="Rectangle 110156" width="71.57" height="4.39" transform="translate(176.69 263.92)" fill="#dbdbdb"/>
      <circle id="Ellipse_804" data-name="Ellipse 804" cx="11.53" cy="11.53" r="11.53" transform="matrix(0.731, -0.682, 0.682, 0.731, 171.926, 285.015)" fill="#ebebeb"/>
      <path id="Path_150655" data-name="Path 150655" d="M195.35,283.31a1.63,1.63,0,1,1-1.62-1.62A1.63,1.63,0,0,1,195.35,283.31Z" fill="#37474f"/>
      <path id="Path_150656" data-name="Path 150656" d="M184.34,283.31a1.63,1.63,0,1,1-1.62-1.62A1.63,1.63,0,0,1,184.34,283.31Z" fill="#37474f"/>
      <path id="Path_150657" data-name="Path 150657" d="M191.15,282.61a2.88,2.88,0,0,1-.65,1.83,2.93,2.93,0,0,1-5.21-1.83Z" fill="#37474f"/>
      <path id="Path_150658" data-name="Path 150658" d="M190.5,284.44a2.91,2.91,0,0,1-4.56,0,3.51,3.51,0,0,1,4.56,0Z" fill="#c7c7c7"/>
      <path id="Path_150659" data-name="Path 150659" d="M230.41,285.6a11.53,11.53,0,1,1-11.53-11.53A11.53,11.53,0,0,1,230.41,285.6Z" fill="#ebebeb"/>
      <path id="Path_150660" data-name="Path 150660" d="M226,283.31a1.63,1.63,0,1,1-1.62-1.62,1.63,1.63,0,0,1,1.62,1.62Z" fill="#37474f"/>
      <path id="Path_150661" data-name="Path 150661" d="M215,283.31a1.63,1.63,0,1,1-1.62-1.62A1.63,1.63,0,0,1,215,283.31Z" fill="#37474f"/>
      <path id="Path_150662" data-name="Path 150662" d="M216,282.61a3.61,3.61,0,0,0,1.05,1.76,2.87,2.87,0,0,0,1.84.63,2.75,2.75,0,0,0,1.83-.6,3.93,3.93,0,0,0,1.15-1.72,3.17,3.17,0,0,1-.86,2,2.669,2.669,0,0,1-1,.63,3.51,3.51,0,0,1-1.15.19,3.39,3.39,0,0,1-1.14-.21,2.85,2.85,0,0,1-1-.65A2.91,2.91,0,0,1,216,282.61Z" fill="#37474f"/>
      <circle id="Ellipse_805" data-name="Ellipse 805" cx="11.53" cy="11.53" r="11.53" transform="translate(233.464 282.861) rotate(-35.46)" fill="#ffc4c0"/>
      <path id="Path_150663" data-name="Path 150663" d="M256.67,283.31a1.63,1.63,0,1,1-1.62-1.62,1.63,1.63,0,0,1,1.62,1.62Z" fill="#37474f"/>
      <path id="Path_150664" data-name="Path 150664" d="M245.66,283.31a1.63,1.63,0,1,1-1.62-1.62,1.63,1.63,0,0,1,1.62,1.62Z" fill="#37474f"/>
      <path id="Path_150665" data-name="Path 150665" d="M246.39,283.76a19.644,19.644,0,0,1,3.15-.23,18.562,18.562,0,0,1,3.15.23,21.69,21.69,0,0,1-6.3,0Z" fill="#37474f"/>
      <circle id="Ellipse_806" data-name="Ellipse 806" cx="11.53" cy="11.53" r="11.53" transform="translate(264.719 290.723) rotate(-63.44)" fill="#ebebeb"/>
      <path id="Path_150666" data-name="Path 150666" d="M287.33,283.31a1.63,1.63,0,1,1-1.62-1.62,1.63,1.63,0,0,1,1.62,1.62Z" fill="#37474f"/>
      <path id="Path_150667" data-name="Path 150667" d="M276.32,283.31a1.63,1.63,0,1,1-1.62-1.62A1.63,1.63,0,0,1,276.32,283.31Z" fill="#37474f"/>
      <path id="Path_150668" data-name="Path 150668" d="M277.27,284.07a3.92,3.92,0,0,1,2.93-1.14,4.441,4.441,0,0,1,1.58.31,4.22,4.22,0,0,1,1.36.83c-.53-.11-1-.23-1.5-.31a10.313,10.313,0,0,0-1.45-.14,7.942,7.942,0,0,0-1.45.11A10.344,10.344,0,0,0,277.27,284.07Z" fill="#37474f"/>
      <circle id="Ellipse_807" data-name="Ellipse 807" cx="11.53" cy="11.53" r="11.53" transform="translate(294.55 285.591) rotate(-45)" fill="#ebebeb"/>
      <path id="Path_150669" data-name="Path 150669" d="M318,283.31a1.63,1.63,0,1,1-1.62-1.62A1.63,1.63,0,0,1,318,283.31Z" fill="#37474f"/>
      <path id="Path_150670" data-name="Path 150670" d="M307,283.31a1.63,1.63,0,1,1-1.62-1.62A1.63,1.63,0,0,1,307,283.31Z" fill="#37474f"/>
      <path id="Path_150671" data-name="Path 150671" d="M313.8,285.54a3.7,3.7,0,0,0-1.06-1.77,2.8,2.8,0,0,0-1.83-.62,2.75,2.75,0,0,0-1.84.59,4.1,4.1,0,0,0-1.14,1.73,3.09,3.09,0,0,1,.85-2,2.92,2.92,0,0,1,1-.64,3.54,3.54,0,0,1,1.15-.18,3.49,3.49,0,0,1,1.15.21,2.67,2.67,0,0,1,1,.65A2.91,2.91,0,0,1,313.8,285.54Z" fill="#37474f"/>
      <rect id="Rectangle_110157" data-name="Rectangle 110157" width="103.51" height="4.39" transform="translate(176.69 306.76)" fill="#dbdbdb"/>
      <rect id="Rectangle_110158" data-name="Rectangle 110158" width="54.72" height="4.39" transform="translate(176.69 315.27)" fill="#dbdbdb"/>
      <circle id="Ellipse_808" data-name="Ellipse 808" cx="11.53" cy="11.53" r="11.53" transform="matrix(0.731, -0.682, 0.682, 0.731, 171.933, 336.364)" fill="#ebebeb"/>
      <path id="Path_150672" data-name="Path 150672" d="M195.35,334.66a1.63,1.63,0,1,1-1.62-1.63,1.63,1.63,0,0,1,1.62,1.63Z" fill="#37474f"/>
      <path id="Path_150673" data-name="Path 150673" d="M184.34,334.66a1.63,1.63,0,1,1-1.62-1.63,1.63,1.63,0,0,1,1.62,1.63Z" fill="#37474f"/>
      <path id="Path_150674" data-name="Path 150674" d="M191.15,334a2.93,2.93,0,0,1-5.21,1.84,3,3,0,0,1-.65-1.84Z" fill="#37474f"/>
      <path id="Path_150675" data-name="Path 150675" d="M190.5,335.79a2.93,2.93,0,0,1-4.56,0A3.48,3.48,0,0,1,190.5,335.79Z" fill="#c7c7c7"/>
      <path id="Path_150676" data-name="Path 150676" d="M230.41,336.94a11.53,11.53,0,1,1-11.53-11.53A11.53,11.53,0,0,1,230.41,336.94Z" fill="#8363aa"/>
      <path id="Path_150677" data-name="Path 150677" d="M226,334.66a1.63,1.63,0,1,1-1.62-1.63,1.63,1.63,0,0,1,1.62,1.63Z" fill="#37474f"/>
      <path id="Path_150678" data-name="Path 150678" d="M215,334.66a1.63,1.63,0,1,1-1.62-1.63,1.63,1.63,0,0,1,1.62,1.63Z" fill="#37474f"/>
      <path id="Path_150679" data-name="Path 150679" d="M216,334a3.68,3.68,0,0,0,1.05,1.77,2.81,2.81,0,0,0,1.84.62,2.74,2.74,0,0,0,1.83-.59,4,4,0,0,0,1.15-1.72,3.14,3.14,0,0,1-.86,2,2.82,2.82,0,0,1-1,.64,3.26,3.26,0,0,1-1.15.18,3.39,3.39,0,0,1-1.14-.21,2.59,2.59,0,0,1-1-.65A2.9,2.9,0,0,1,216,334Z" fill="#37474f"/>
      <circle id="Ellipse_809" data-name="Ellipse 809" cx="11.53" cy="11.53" r="11.53" transform="translate(233.474 334.206) rotate(-35.46)" fill="#ebebeb"/>
      <path id="Path_150680" data-name="Path 150680" d="M256.67,334.66a1.63,1.63,0,1,1-1.62-1.63,1.63,1.63,0,0,1,1.62,1.63Z" fill="#37474f"/>
      <path id="Path_150681" data-name="Path 150681" d="M245.66,334.66a1.63,1.63,0,1,1-.477-1.183,1.63,1.63,0,0,1,.477,1.183Z" fill="#37474f"/>
      <path id="Path_150682" data-name="Path 150682" d="M246.39,335.1a21.688,21.688,0,0,1,6.3,0A21.692,21.692,0,0,1,246.39,335.1Z" fill="#37474f"/>
      <circle id="Ellipse_810" data-name="Ellipse 810" cx="11.53" cy="11.53" r="11.53" transform="translate(264.73 342.063) rotate(-63.44)" fill="#ebebeb"/>
      <path id="Path_150683" data-name="Path 150683" d="M287.33,334.66a1.63,1.63,0,1,1-1.62-1.63,1.63,1.63,0,0,1,1.62,1.63Z" fill="#37474f"/>
      <path id="Path_150684" data-name="Path 150684" d="M276.32,334.66a1.63,1.63,0,1,1-.463-1.168,1.63,1.63,0,0,1,.463,1.168Z" fill="#37474f"/>
      <path id="Path_150685" data-name="Path 150685" d="M277.27,335.42a3.93,3.93,0,0,1,2.93-1.15,4.67,4.67,0,0,1,1.58.31,4.25,4.25,0,0,1,1.36.84c-.53-.11-1-.23-1.5-.31a8.819,8.819,0,0,0-2.9,0A9.191,9.191,0,0,0,277.27,335.42Z" fill="#37474f"/>
      <circle id="Ellipse_811" data-name="Ellipse 811" cx="11.53" cy="11.53" r="11.53" transform="translate(294.56 336.941) rotate(-45)" fill="#ebebeb"/>
      <path id="Path_150686" data-name="Path 150686" d="M318,334.66a1.63,1.63,0,1,1-1.62-1.63,1.63,1.63,0,0,1,1.62,1.63Z" fill="#37474f"/>
      <path id="Path_150687" data-name="Path 150687" d="M307,334.66a1.63,1.63,0,1,1-1.62-1.63,1.63,1.63,0,0,1,1.62,1.63Z" fill="#37474f"/>
      <path id="Path_150688" data-name="Path 150688" d="M313.8,336.88a3.67,3.67,0,0,0-1.06-1.76,2.8,2.8,0,0,0-1.83-.62,2.7,2.7,0,0,0-1.84.59,4,4,0,0,0-1.14,1.72,3.06,3.06,0,0,1,.85-2,2.65,2.65,0,0,1,1-.64,3.55,3.55,0,0,1,1.15-.19,4.1,4.1,0,0,1,1.15.21,2.81,2.81,0,0,1,1,.65A2.92,2.92,0,0,1,313.8,336.88Z" fill="#37474f"/>
      <path id="Path_150689" data-name="Path 150689" d="M328.45,391.18H170.65V374.27h157.8Zm-157.3-.5H328V374.77H171.15Z" fill="#dbdbdb"/>
      <rect id="Rectangle_110159" data-name="Rectangle 110159" width="69.96" height="20.62" transform="translate(215.02 399.46)" fill="#8363aa"/>
      <path id="Path_150690" data-name="Path 150690" d="M229.61,411.94a.56.56,0,0,1,.8-.08,3.62,3.62,0,0,0,2.1.85,2.4,2.4,0,0,0,1.38-.41,1,1,0,0,0,.47-.79.56.56,0,0,0-.1-.35.94.94,0,0,0-.33-.33,4.371,4.371,0,0,0-1.51-.52h0a5.9,5.9,0,0,1-1.42-.43,2.32,2.32,0,0,1-1-.86,1.63,1.63,0,0,1-.25-.9,2,2,0,0,1,.88-1.61,3.24,3.24,0,0,1,1.9-.58,4.35,4.35,0,0,1,2.4.88.57.57,0,1,1-.63.95,3.15,3.15,0,0,0-1.77-.71,2.07,2.07,0,0,0-1.23.38.87.87,0,0,0-.42.69.51.51,0,0,0,.08.31,1.11,1.11,0,0,0,.29.28,3.76,3.76,0,0,0,1.38.49h0a6.458,6.458,0,0,1,1.52.46,2.6,2.6,0,0,1,1.1.91,1.87,1.87,0,0,1,.26.94,2.11,2.11,0,0,1-.94,1.7,3.43,3.43,0,0,1-2,.63,4.78,4.78,0,0,1-2.82-1.1.58.58,0,0,1-.14-.8Z" fill="#fff"/>
      <path id="Path_150691" data-name="Path 150691" d="M240.38,413.85a3.17,3.17,0,0,1-3.18-3.18v-3.92a.59.59,0,0,1,.6-.6.61.61,0,0,1,.62.6v3.92a2,2,0,1,0,3.91,0v-3.92a.61.61,0,0,1,.62-.6.6.6,0,0,1,.61.6v3.92A3.18,3.18,0,0,1,240.38,413.85Z" fill="#fff"/>
      <path id="Path_150692" data-name="Path 150692" d="M246.14,413.25v-6.5a.6.6,0,0,1,.6-.6h1.57a2.09,2.09,0,0,1,1.67,3.34,2.36,2.36,0,0,1-1.24,4.36h-2a.6.6,0,0,1-.6-.6Zm1.22-4.12h.95a.89.89,0,0,0,.87-.89.87.87,0,0,0-.87-.87h-.95Zm0,3.5h1.38a1.14,1.14,0,0,0,0-2.28h-1.38Z" fill="#fff"/>
      <path id="Path_150693" data-name="Path 150693" d="M259.3,406.75v6.5a.62.62,0,0,1-.62.6.6.6,0,0,1-.6-.6v-4.64l-1.59,2.2a.59.59,0,0,1-.49.26h0a.61.61,0,0,1-.5-.26l-1.58-2.2v4.64a.6.6,0,0,1-.61.6.61.61,0,0,1-.61-.6v-6.5a.61.61,0,0,1,.61-.6h0a.58.58,0,0,1,.48.25l2.19,3,2.19-3a.62.62,0,0,1,.5-.25h0a.63.63,0,0,1,.63.6Z" fill="#fff"/>
      <path id="Path_150694" data-name="Path 150694" d="M262,406.75a.6.6,0,0,1,.61-.6.61.61,0,0,1,.62.6v6.5a.61.61,0,0,1-.62.6.6.6,0,0,1-.61-.6Z" fill="#fff"/>
      <path id="Path_150695" data-name="Path 150695" d="M270,407.37h-1.75v5.88a.59.59,0,0,1-.6.6.6.6,0,0,1-.61-.6v-5.88H265.3a.61.61,0,0,1-.6-.62.59.59,0,0,1,.6-.6H270a.6.6,0,0,1,.61.6A.63.63,0,0,1,270,407.37Z" fill="#fff"/>
      <path id="Path_150696" data-name="Path 150696" d="M391.3,206.93c4.46,15.31,8.07,30.83,2.6,33.9-8.57,4.81-35.64,5.95-44.16,5.8-3.28-.07-4.69-27.35-1.19-27.25,6,.16,32.38,2.84,33.88,1.6.94-.77.52-18.5-.81-29.26-.41-3.28-1.76-5.94-1-5.79C383.49,186.47,388.85,198.48,391.3,206.93Z" fill="#ffc4c0"/>
      <path id="Path_150697" data-name="Path 150697" d="M309.56,224c.27,3.26,8.26,1.92,8.26,1.92a6,6,0,0,0-2.16,3.49c-.4,2.46,3.28,4.16,3.28,4.16a7.42,7.42,0,0,0-1.7,4c-.14,2.39,3.33,4.64,3.33,4.64a6.49,6.49,0,0,0,.75,4.49c2.24,3.55,8.65,3.53,12.73,3.55s15.67-3.72,17.95-4.21l.41-26.14s-18.25-5.31-23.05-4.66C325.32,215.8,309.15,219,309.56,224Z" fill="#ffc4c0"/>
      <path id="Path_150698" data-name="Path 150698" d="M317.88,225.79c4.16-1.62,8.7-2.23,13.09-2.78a.08.08,0,0,1,0,.15c-4.36.5-8.71,2.17-13,2.83a.11.11,0,0,1-.09-.2Z" fill="#263238"/>
      <path id="Path_150699" data-name="Path 150699" d="M319,233.19a12.149,12.149,0,0,1,3-.43c1.08-.08,2.15-.14,3.23-.18q3.23-.14,6.47-.11c.09,0,.12.15,0,.15-2.15.1-4.3.22-6.44.4-1.07.09-2.15.19-3.22.3a14,14,0,0,1-3,.17.16.16,0,0,1-.04-.3Z" fill="#263238"/>
      <path id="Path_150700" data-name="Path 150700" d="M320.66,242.21a7.81,7.81,0,0,1,2.73-.24l2.95-.08c2-.06,3.93-.13,5.89-.26a.075.075,0,1,1,0,.15c-2,.15-4,.32-6,.44l-2.94.17a7.71,7.71,0,0,1-2.67-.08.054.054,0,1,1,.04-.1Z" fill="#263238"/>
      <path id="Path_150701" data-name="Path 150701" d="M352.54,219l2.07,28.61s34.06-.4,41.21-7-6.58-43.75-11.24-50.63c-3.42-5.06-4.88-5.11-4.92-4.35s3.86,11.61,2.13,34.68C381.71,221.35,352.54,219,352.54,219Z" fill="#8363aa"/>
      <g id="Group_131122" data-name="Group 131122" opacity="0.1">
        <path id="Path_150702" data-name="Path 150702" d="M354.61,219.14v28.45l-.11-1.51-.12-1.71-.16-2.21-.06-.74-.16-2.2-.12-1.72-.16-2.2-.05-.74-.16-2.21-.13-1.71-.16-2.21-.05-.73-.16-2.21L352.9,224v-5Z"/>
        <path id="Path_150703" data-name="Path 150703" d="M357.56,219.37v28.15h-.74V219.31Z"/>
        <path id="Path_150704" data-name="Path 150704" d="M361.48,219.65v27.71l-1.72.07v-27.9Z"/>
        <path id="Path_150705" data-name="Path 150705" d="M364.42,219.86V247.2h-.74V219.8Z"/>
        <path id="Path_150706" data-name="Path 150706" d="M368.34,220.1v26.83l-1.71.12V220Z"/>
        <path id="Path_150707" data-name="Path 150707" d="M371.28,220.27v26.4l-.73.07V220.23Z"/>
        <path id="Path_150708" data-name="Path 150708" d="M375.2,220.46v25.82l-1.71.18V220.38Z"/>
        <path id="Path_150709" data-name="Path 150709" d="M378.14,220.54v25.37l-.73.1V220.52Z"/>
        <path id="Path_150710" data-name="Path 150710" d="M382.06,186.68v15.65c0-.45-.05-.9-.08-1.34a3.637,3.637,0,0,0-.05-.74c-.05-.77-.12-1.5-.19-2.21s-.11-1.17-.17-1.71c-.09-.78-.18-1.52-.28-2.21a4.422,4.422,0,0,0-.1-.73c-.11-.8-.23-1.54-.36-2.21s-.21-1.19-.32-1.71c-.05-.28-.11-.54-.16-.78V185.3a5,5,0,0,1,1.58,1.23Z"/>
        <path id="Path_150711" data-name="Path 150711" d="M382.06,215.91v29.4l-1.71.28V220.53c.91,0,1.43-.12,1.44-.26l.12-1.64c0-.58.06-1.15.1-1.71A4.888,4.888,0,0,1,382.06,215.91Z"/>
        <path id="Path_150712" data-name="Path 150712" d="M385,190.61v54.15l-.74.15V189.49l.31.45A7.823,7.823,0,0,1,385,190.61Z"/>
        <path id="Path_150713" data-name="Path 150713" d="M388.93,198.91V243.8c-.55.16-1.13.31-1.72.46V194.92c.2.45.42.92.63,1.41s.49,1.12.73,1.71Z"/>
        <path id="Path_150714" data-name="Path 150714" d="M391.87,206.66v36.16l-.74.28V204.58l.12.33C391.45,205.49,391.66,206.07,391.87,206.66Z"/>
        <path id="Path_150715" data-name="Path 150715" d="M395.79,219.74V240.6a8.15,8.15,0,0,1-1.09.82c-.19.13-.4.25-.62.37v-28.3c.05.16.1.32.14.48s.15.49.22.74c.21.73.42,1.47.62,2.21.16.57.31,1.14.46,1.71Z"/>
      </g>
      <g id="Group_131123" data-name="Group 131123" opacity="0.11">
        <path id="Path_150716" data-name="Path 150716" d="M382.06,186.68c.17.17.34.37.52.58H380c-.07-.28-.13-.52-.17-.73h2.07Z"/>
        <path id="Path_150717" data-name="Path 150717" d="M385.33,191.18h-4.5c-.1-.62-.21-1.19-.32-1.71h3.76l.31.45c.13.2.28.42.43.67Z"/>
        <path id="Path_150718" data-name="Path 150718" d="M386.83,194.12h-5.54a4.422,4.422,0,0,0-.1-.73h5.3C386.6,193.62,386.72,193.87,386.83,194.12Z"/>
        <path id="Path_150719" data-name="Path 150719" d="M388.57,198h-6.83c-.05-.59-.11-1.17-.17-1.71h6.27C388.08,196.88,388.33,197.45,388.57,198Z"/>
        <path id="Path_150720" data-name="Path 150720" d="M389.77,201H382a3.637,3.637,0,0,0-.05-.74h7.54Z"/>
        <path id="Path_150721" data-name="Path 150721" d="M391.13,204.58l.12.33h-9.08a13.891,13.891,0,0,0-.07-1.72h8.51C390.78,203.65,391,204.11,391.13,204.58Z"/>
        <path id="Path_150722" data-name="Path 150722" d="M392,207.11c.08.25.16.49.25.74H382.22v-.74Z"/>
        <path id="Path_150723" data-name="Path 150723" d="M393.56,211.77H382.19v-1.71H393C393.2,210.62,393.38,211.19,393.56,211.77Z"/>
        <path id="Path_150724" data-name="Path 150724" d="M394.44,214.71H382.11v-.74h12.08A4.956,4.956,0,0,1,394.44,214.71Z"/>
        <path id="Path_150725" data-name="Path 150725" d="M395.52,218.63H381.91c0-.58.06-1.15.1-1.71h13.05C395.22,217.49,395.37,218.06,395.52,218.63Z"/>
        <path id="Path_150726" data-name="Path 150726" d="M396.22,221.57H352.73l-.06-.73h43.38C396.11,221.08,396.17,221.33,396.22,221.57Z"/>
        <path id="Path_150727" data-name="Path 150727" d="M397,225.49H353l-.1-1.49v-.18h43.8Q396.87,224.65,397,225.49Z"/>
        <path id="Path_150728" data-name="Path 150728" d="M397.48,228.43H353.22l-.05-.73h44.21C397.41,228,397.45,228.19,397.48,228.43Z"/>
        <path id="Path_150729" data-name="Path 150729" d="M397.82,232.35H353.51l-.13-1.71h44.33C397.76,231.23,397.8,231.8,397.82,232.35Z"/>
        <path id="Path_150730" data-name="Path 150730" d="M397.81,234.56v.74h-44l-.05-.74Z"/>
        <path id="Path_150731" data-name="Path 150731" d="M397.43,237.5a7.889,7.889,0,0,1-.62,1.72H354l-.12-1.72Z"/>
        <path id="Path_150732" data-name="Path 150732" d="M394.7,241.42c-.19.13-.4.25-.62.37s-.46.25-.71.37H354.22l-.06-.74Z"/>
        <path id="Path_150733" data-name="Path 150733" d="M386.75,244.37l-1.74.39-.74.15c-.72.14-1.46.28-2.21.4l-1.71.28c-.73.12-1.47.22-2.21.32l-.73.1-.59.07H354.5l-.12-1.71Z"/>
      </g>
      <path id="Path_150734" data-name="Path 150734" d="M360,239.62c-.16-2.1-.34-4.19-.51-6.29s-.4-4.1-.63-6.15c-.12-1-.24-2.06-.37-3.08a29.653,29.653,0,0,0-.41-3c0-.1-.16-.06-.16,0a28.7,28.7,0,0,0,.1,3.21c0,1,.09,2,.15,3,.14,2.09.29,4.19.5,6.28s.42,4.11.67,6.16a51.045,51.045,0,0,0,.86,6c0,.09.15.06.15,0a57.652,57.652,0,0,0-.35-6.13Z" fill="#263238"/>
      <path id="Path_150735" data-name="Path 150735" d="M385.72,220c-1.06,0-2.18.07-3.25.12h-.4c.05-.49.19-1,.24-1.46s.13-1.17.19-1.75c.11-.93.15-1.86.19-2.78q.15-3,.05-6c0-1.16-.09-2.31-.17-3.46.19-1.55.32-3.11.45-4.68,0-.1-.15-.09-.16,0-.09,1.21-.22,2.41-.37,3.62-.19-2.5-.45-5-.81-7.48,0-.1-.18-.1-.18,0q.44,6,.44,12v5.88c0,1-.05,2,0,2.94v1.59a13.7,13.7,0,0,1,0,1.57c-.86,0-1.72.09-2.58.11q-3.285.075-6.56-.16c-4.34-.26-8.67-.63-13-.88-1.23-.07-2.47-.17-3.7-.21h-1.85a14.392,14.392,0,0,1-1.86-.08c-.1,0,.1.61.11.66s.12.16.12,0v-.42c.5.06,1,.16,1.46.22l1.71.19c1.05.12,2.11.19,3.16.27,2.22.18,4.45.34,6.67.5,4.34.3,8.68.63,13,.6,1.22,0,2.43-.06,3.63-.17a14.841,14.841,0,0,0,3.5-.67S385.77,220,385.72,220Z" fill="#263238"/>
      <path id="Path_150736" data-name="Path 150736" d="M380.18,245.61c-2.12.19-4.2.59-6.31.81s-4.32.46-6.49.62-4.26.27-6.39.34l-3.2.1c-1,0-3,.12-3,.08s-.16-.81-.21-.94-.12,0-.1,0a5.67,5.67,0,0,0,.11,1.21,14,14,0,0,0,3.24.18h3.33c2.13-.06,4.26-.18,6.39-.34s4.25-.38,6.36-.67a60.755,60.755,0,0,0,6.26-1.24C380.28,245.69,380.32,245.59,380.18,245.61Z" fill="#263238"/>
      <path id="Path_150737" data-name="Path 150737" d="M337.07,125.91c-1.76,3.38,3.24,3.52,3.24,3.52s-7.24,1.54-7.7,5.73c-.43,4,5.61,4,6,4-.38.08-7,1.68-7,5.93,0,4.43,6,3.34,6.42,3.26-.33.2-4.73,2.83-4,6.07,1.23,5.57,11.16-1.06,15.55.37v8.11l3.58,1a49,49,0,0,1,4.61-6.08c2-2.45,3.93-4.84,4.33-6.8a4.18,4.18,0,0,0-1.95-4.59s3.75-1.51,3.88-4.86c.07-1.72-2.63-3.35-2.63-3.35s2.95-1.33,2.88-4.32c-.05-2.39-2.75-3.65-2.75-3.65s2.25-2.6,1.41-5C361.23,120.34,340.84,118.66,337.07,125.91Z" fill="#ffc4c0"/>
      <path id="Path_150738" data-name="Path 150738" d="M351.26,156l-1.7,6.88c0,6.68,8.13,15,9.85,9.32,1.32-4.31-3.64-10.15-1.65-14.37h0Z" fill="#ffc4c0"/>
      <path id="Path_150739" data-name="Path 150739" d="M361.12,130a.05.05,0,0,0,0-.1,35.52,35.52,0,0,0-21.11-.49c-.22.07-.2.45,0,.42A73,73,0,0,1,361.12,130Z" fill="#263238"/>
      <path id="Path_150740" data-name="Path 150740" d="M361.48,138.19c.08,0,.1-.12,0-.15-6.78-2.22-15.68-2.41-23.06.9-.25.11-.36.47-.06.36C343.45,137.47,355,137.08,361.48,138.19Z" fill="#263238"/>
      <path id="Path_150741" data-name="Path 150741" d="M337.61,148.75c7.19-2.9,14.6-3.21,22.25-2.43.1,0,.1-.13,0-.16-3.64-1.4-8.57-1.39-12.4-1.06a20.47,20.47,0,0,0-10,3.4C337.39,148.58,337.45,148.82,337.61,148.75Z" fill="#263238"/>
    </g>
    <g id="freepik--Plant--inject-13">
      <path id="Path_150742" data-name="Path 150742" d="M140.93,307.22c-4-3.9-9.13-8.62-15.21-6.93-5.73,1.58-7.92,7.83-9,13-1.32,6.71-2.35,13.49-3.41,20.25s-2.09,13.65-3.07,20.49q-.83,5.79-1.64,11.58l-.81,5.79c-.26,1.89-.58,3.78-.68,5.69a.54.54,0,0,0,1,.12c.74-3.22,1.05-6.57,1.52-9.84s1-6.57,1.43-9.85q1.44-9.8,2.93-19.58t3-19.56c.88-5.52,1.3-12.39,6.2-16a9.47,9.47,0,0,1,9.16-.85c3.22,1.23,5.8,3.53,8.32,5.82C140.89,307.41,141,307.29,140.93,307.22Z" fill="#263238"/>
      <path id="Path_150743" data-name="Path 150743" d="M135.48,303.23s-8.14-2.93-12.15,3,.78,21,37.83,29.56a104.631,104.631,0,0,0-8.91-33.49C144.3,285,130.15,291.55,135.48,303.23Z" fill="#8363aa"/>
      <path id="Path_150744" data-name="Path 150744" d="M159,333.33a29.927,29.927,0,0,0-1.86-3c-.62-1-1.25-1.91-1.88-2.85-.48-.72-1-1.42-1.45-2.13a1.411,1.411,0,0,1,.07-.53l.12-1c.09-.69.2-1.38.3-2.08s.22-1.38.35-2.06a10.688,10.688,0,0,1,.48-2.19c.05-.11-.15-.16-.16,0a8.943,8.943,0,0,1-.33,1.23c-.09.31-.17.62-.25.93-.18.7-.35,1.41-.51,2.12s-.27,1.3-.38,2c-.05.32-.1.64-.14.95-.66-.94-1.34-1.87-2-2.79-2-2.59-4.05-5.08-6.2-7.51v-.07c.19-3.89.1-7.75,1-11.58,0-.1-.13-.16-.15-.05a39.83,39.83,0,0,0-1.39,11.07c-.77-.86-1.55-1.72-2.34-2.57-1.81-1.94-3.64-3.85-5.52-5.72-.08-.07-.2,0-.12.12,3.12,3.36,6.08,6.86,9,10.42a66.5,66.5,0,0,0-6.77.25c-2.51.19-5,.51-7.5.85a.09.09,0,0,0,0,.17,69.456,69.456,0,0,1,7.49-.67c2.42-.1,4.82,0,7.23,0,1.56,1.93,3.11,3.88,4.63,5.85h-2.05c-1.12,0-2.25.1-3.37.2a49.279,49.279,0,0,0-6.84,1,.08.08,0,1,0,0,.16c2.27-.25,4.56-.47,6.85-.55h4.98a2.179,2.179,0,0,0,.93-.09c1,1.3,2,2.59,3,3.89.79,1,1.56,2.08,2.33,3.13s1.48,2.25,2.34,3.26a.1.1,0,1,0,.11-.16Z" fill="#263238"/>
      <path id="Path_150745" data-name="Path 150745" d="M139,311.65a23.839,23.839,0,0,0-4-.2c-1.32,0-2.65,0-4,.09a.08.08,0,0,0,0,.16c1.34-.09,2.68-.12,4-.1s2.59.15,3.89.11Z" fill="#263238"/>
      <path id="Path_150746" data-name="Path 150746" d="M150.65,314.63c.15-1.26.31-2.53.58-3.78a.08.08,0,0,0-.16,0c-.19,1.24-.43,2.48-.62,3.72-.09.63-.18,1.25-.25,1.88a8.72,8.72,0,0,0-.15,1.76c0,.11.19.13.21,0a11.572,11.572,0,0,0,.2-1.76C150.51,315.83,150.58,315.23,150.65,314.63Z" fill="#263238"/>
      <path id="Path_150747" data-name="Path 150747" d="M148.21,300.61c-.32,1.23-.64,2.48-.87,3.73q-.17,1-.3,1.92a7.809,7.809,0,0,0-.12,1.87c0,.05.08.05.09,0a10.792,10.792,0,0,0,.3-1.79c.08-.61.17-1.23.28-1.84.22-1.29.45-2.57.78-3.84C148.4,300.57,148.24,300.51,148.21,300.61Z" fill="#263238"/>
      <path id="Path_150748" data-name="Path 150748" d="M100,375.75q-.3-3.5-.68-7c-.48-4.61-1.05-9.22-1.67-13.82s-1.2-9.18-1.94-13.75A35,35,0,0,0,94.27,335a6,6,0,0,0-3.46-3.9c-4.36-1.51-7.3,3-9.06,6.21a.09.09,0,0,0,.15.08c1-1.51,4-5.77,7.27-5.57,2.22.14,4,1.71,5.07,7.26,2.66,13.82,5.06,41.87,5.34,43.71.15,1,.84.93.84-.11C100.44,380.33,100.17,378,100,375.75Z" fill="#263238"/>
      <path id="Path_150749" data-name="Path 150749" d="M82.93,335.54s3.8-13.45-4.62-6.73c-14,11.2-14.51,35.56-14.51,35.56s24.92-14.48,28-24C96.43,326.12,82.93,335.54,82.93,335.54Z" fill="#8363aa"/>
      <path id="Path_150750" data-name="Path 150750" d="M87.64,342.14c-2,.4-3.94.66-5.91.94l-2.81.4c-.63.09-1.27.15-1.9.22,1.85-2.55,3.73-5.1,5.51-7.71.06-.1-.09-.2-.17-.12a58.057,58.057,0,0,0-4.17,4.8c-.36-1-.73-2.08-1.1-3.12-.42-1.2-.88-2.4-1.19-3.64,0-.11-.18-.06-.16,0,.34,1.24.59,2.5.92,3.73s.68,2.38,1.1,3.54c-.91,1.18-1.79,2.4-2.64,3.62-.43-1.21-1-2.39-1.34-3.62a.08.08,0,0,0-.16,0c.45,1.37.69,2.79,1.11,4.16-.57.84-1.14,1.67-1.69,2.52-1,1.55-2,3.14-2.88,4.73a.36.36,0,0,0-.22.38c-1.58,2.72-3.07,5.49-4.55,8.27,0,.1.09.18.14.08,1.48-2.75,3.13-5.43,4.84-8.06h0a4,4,0,0,1,.81-.16c.29-.05.58-.12.86-.18.65-.14,1.29-.31,1.93-.47,1.26-.31,2.51-.61,3.8-.83.1,0,0-.18-.05-.16-1.51.29-3,.46-4.55.63-.72.09-1.44.18-2.15.29h-.11q1.35-2,2.73-4.05c.9-1.31,1.83-2.61,2.77-3.91.86-.12,1.72-.34,2.58-.51l2.89-.56c1.93-.38,3.85-.81,5.79-1.14C87.8,342.29,87.75,342.12,87.64,342.14Z" fill="#263238"/>
      <path id="Path_150751" data-name="Path 150751" d="M72.67,343.47c-.12-.36-.23-.71-.34-1.07a19.161,19.161,0,0,1-.57-2.26c0-.1-.19-.05-.16.05.16.76.34,1.52.51,2.28a14.251,14.251,0,0,0,.65,2.23.15.15,0,0,0,.29-.08C72.94,344.23,72.79,343.85,72.67,343.47Z" fill="#263238"/>
      <path id="Path_150752" data-name="Path 150752" d="M90.19,339c-1.13.17-2.28.25-3.42.35s-2.29.26-3.43.43c-.06,0-.06.11,0,.1,1.15-.08,2.29-.17,3.43-.32s2.28-.31,3.43-.39C90.31,339.19,90.3,339,90.19,339Z" fill="#263238"/>
      <path id="Path_150753" data-name="Path 150753" d="M118.31,358.72c-.44-9.9-1.07-19.79-2.07-29.66-.49-4.91-1-9.82-1.74-14.71a104.578,104.578,0,0,0-2.83-14.24,27.33,27.33,0,0,0-4.75-10,10.73,10.73,0,0,0-9.57-4.18c-4.34.54-7.83,3.27-10.85,6.23-3.38,3.33-6.49,7-9.62,10.53-.8.9-1.58,1.81-2.37,2.72-.07.08,0,.19.13.11,3.06-3.52,6.25-6.94,9.58-10.22,3.09-3,6.26-6.33,10.53-7.58a10.77,10.77,0,0,1,6.11-.14,9.76,9.76,0,0,1,4.18,2.64c2.4,2.5,3.75,5.89,4.71,9.16,2.67,9.11,3.62,18.65,4.61,28.06s1.68,19.13,2.16,28.72.86,19.3,1.79,28.91c.12,1.19.27,2.37.42,3.55.1.8,1.34.8,1.27,0C119.21,378.62,118.76,368.68,118.31,358.72Z" fill="#263238"/>
      <path id="Path_150754" data-name="Path 150754" d="M86,293.2s5.65-10.47-1-13.83S55.88,301,49.34,337.49c0,0,36.13-16,48.4-31.91S96.1,286.15,86,293.2Z" fill="#8363aa"/>
      <path id="Path_150755" data-name="Path 150755" d="M91.27,301.71c-4.06,0-8.11-.31-12.17-.28.76-.87,1.52-1.75,2.29-2.61a38.319,38.319,0,0,0,3.17-3.69c.06-.08-.07-.2-.15-.14a29.763,29.763,0,0,0-3.07,3.08q-1.53,1.62-3,3.26c-1.55,1.68-3.07,3.38-4.59,5.09V303.8c0-1.38,0-2.76.05-4.13,0-2.8,0-5.6.21-8.39,0-.1-.16-.1-.17,0-.19,2.8-.48,5.59-.62,8.39-.07,1.38-.1,2.75-.12,4.13v3.33c-.24.27-.49.53-.72.8-3.24,3.7-6.32,7.53-9.32,11.43a2.352,2.352,0,0,0-.06-.65,11.3,11.3,0,0,0-.14-1.29c-.1-.93-.23-1.86-.37-2.78s-.27-1.74-.41-2.61-.41-2-.48-3a.09.09,0,1,0-.17,0,24.7,24.7,0,0,1,.34,3c.09.89.17,1.78.25,2.68s.16,1.79.26,2.68l.12,1.29a4.664,4.664,0,0,0,.08.64,1.21,1.21,0,0,0,.18.51c-.52.67-1,1.34-1.55,2-2,2.71-4.06,5.45-6.07,8.19-.06.09.06.2.12.12C57,327.73,59,325.29,61,322.88c1.49.06,3-.05,4.49-.07s3.14,0,4.7,0a.09.09,0,0,0,0-.17c-1.57,0-3.13,0-4.7.06s-2.89-.07-4.32,0c1.75-2.12,3.52-4.23,5.29-6.34.64-.77,1.29-1.53,1.94-2.3a9.112,9.112,0,0,0,1.81.06h2.14c1.33,0,2.67,0,4-.06,2.76,0,5.52-.13,8.27-.14a.08.08,0,0,0,0-.16c-2.76,0-5.52-.16-8.28-.23-1.34,0-2.67-.07-4-.09H68.97l4.55-5.4a.14.14,0,0,0,.08-.1c1.49-1.74,3-3.49,4.46-5.22.21-.24.42-.47.62-.71,4.21.13,8.42-.14,12.62-.06a.121.121,0,1,0-.03-.24Z" fill="#263238"/>
      <path id="Path_150756" data-name="Path 150756" d="M89.19,308.89h-1c-.1,0-.09.15,0,.15h1C89.3,309.06,89.3,308.89,89.19,308.89Z" fill="#263238"/>
      <path id="Path_150757" data-name="Path 150757" d="M87,308.9c-1.31,0-2.61,0-3.91-.08l-1.95-.06a7.3,7.3,0,0,0-1.81,0c-.07,0,0,.1,0,.12a6.918,6.918,0,0,0,1.82.13H87C87.12,309.07,87.11,308.9,87,308.9Z" fill="#263238"/>
      <path id="Path_150758" data-name="Path 150758" d="M75.65,321.09a55,55,0,0,0-8-.72v.06c2.65.25,5.31.4,8,.83C75.71,321.27,75.75,321.11,75.65,321.09Z" fill="#263238"/>
      <path id="Path_150759" data-name="Path 150759" d="M64.79,309.47a5.776,5.776,0,0,0-.08-.7c-.07-.52-.16-1-.24-1.56-.15-1-.33-2-.52-3,0-.09-.17-.07-.16,0q.2,1.53.33,3.06c0,.51.08,1,.13,1.51a4.23,4.23,0,0,0,.2,1.43.19.19,0,0,0,.35,0,1.89,1.89,0,0,0-.01-.74Z" fill="#263238"/>
      <path id="Path_150760" data-name="Path 150760" d="M118,279.75c-1.29-2.4-2.93-5.58-6.16-5.38-2.67.16-3.87,2.88-4.44,5.13-1.76,6.95-1.88,14.29-2.22,21.41-.73,15.06-1.38,30.14-1.47,45.21v12.54c0,4.26,0,8.55.3,12.81a.32.32,0,0,0,.63,0c0-3.65-.11-7.29-.12-10.94s0-7.12.07-10.67q.16-10.81.58-21.62c.26-7.16.58-14.31.88-21.47.15-3.58.3-7.15.46-10.73s.31-6.93.71-10.38c.22-1.93.5-3.86.91-5.76a8,8,0,0,1,1.66-3.86,3.64,3.64,0,0,1,4.71-.35,10,10,0,0,1,3.34,4.17C117.86,279.94,118,279.85,118,279.75Z" fill="#263238"/>
      <path id="Path_150761" data-name="Path 150761" d="M117.08,278.6s-2.65-9.37,3.21-4.68c9.77,7.8,10.12,24.76,10.12,24.76S113.05,288.6,110.89,282C107.67,272,117.08,278.6,117.08,278.6Z" fill="#8363aa"/>
      <path id="Path_150762" data-name="Path 150762" d="M126.75,291.73c-.15-.26-.32-.51-.49-.77a5.339,5.339,0,0,0,0-.8c0-.4,0-.81,0-1.21q0-1.18.09-2.37c0-.11-.16-.1-.17,0,0,.78-.07,1.55-.09,2.33v1.67c-.69-1.06-1.38-2.11-2.11-3.14-.21-.3-.43-.59-.64-.88a17.38,17.38,0,0,1,0-3.06c0-1.09,0-2.18.06-3.27,0-.11-.16-.1-.17,0,0,1.14-.08,2.27-.14,3.4a21.84,21.84,0,0,0-.07,2.43c-1.68-2.28-3.45-4.48-5.25-6.67a.085.085,0,0,0-.13.11c1.11,1.41,2.18,2.85,3.23,4.32-2-.48-4.12-.75-6.2-1.05-.1,0-.14.14,0,.16,2.2.33,4.36.88,6.53,1.36h0l2.47,3.53,1,1.45h-.09l-.67-.09c-.48-.06-1-.1-1.45-.13-1-.08-2-.14-3-.19a.09.09,0,0,0,0,.17c1,0,2,.1,3,.2l1.55.19.68.08h.2l1.67,2.46c1,1.45,1.85,3,2.9,4.4a.081.081,0,1,0,.14-.08,43.348,43.348,0,0,0-2.85-4.55Z" fill="#263238"/>
      <path id="Path_150763" data-name="Path 150763" d="M122.43,281.14v-1.09a17.691,17.691,0,0,1,.09-2.3.08.08,0,1,0-.16,0c0,.75-.09,1.51-.12,2.27v1.66a1.45,1.45,0,0,0,0,.55.07.07,0,1,0,.14,0,1.45,1.45,0,0,0,0-.51A2.315,2.315,0,0,0,122.43,281.14Z" fill="#263238"/>
      <path id="Path_150764" data-name="Path 150764" d="M120.29,285c-.65-.11-1.31-.15-2-.2s-1.43-.13-2.15-.22a.09.09,0,1,0,0,.17c1.37.08,2.74.33,4.11.38C120.35,285.16,120.36,285,120.29,285Z" fill="#263238"/>
      <path id="Path_150765" data-name="Path 150765" d="M125.74,285.08c.05.07,0,.28,0,.36v1.62a1.37,1.37,0,0,0,0,.57h.06a.51.51,0,0,0,0-.27v-2.28C125.8,285,125.63,284.93,125.74,285.08Z" fill="#263238"/>
      <path id="Path_150766" data-name="Path 150766" d="M118.36,329.76c-3.65-2.75-6.93-6.68-11.84-6.88-4.06-.16-6.9,2.89-8.52,6.29a35.849,35.849,0,0,0-2,5.6c-.73,2.57-1.42,5.14-2.07,7.73q-1.91,7.63-3.25,15.4c-.49,2.89-1,5.78-1.32,8.68a76,76,0,0,0-.85,8.89.46.46,0,0,0,.91.1c.49-2.43.7-4.94,1.06-7.39s.73-4.93,1.15-7.39q1.24-7.38,2.91-14.68a135.59,135.59,0,0,1,3.55-13.73c1.07-3.21,2.77-6.95,6.23-8.1,5.27-1.76,10.06,2.7,13.91,5.6C118.33,329.94,118.44,329.82,118.36,329.76Z" fill="#263238"/>
      <path id="Path_150767" data-name="Path 150767" d="M114.58,327.13s-3.36-9.61,1.5-11.49c7.3-2.82,26.39,18.68,22.65,51.63,0,0-14.75-8.13-25.64-17.27s-13.68-21.08-8.89-24.17S114.58,327.13,114.58,327.13Z" fill="#8363aa"/>
      <path id="Path_150768" data-name="Path 150768" d="M136.53,360.21a26.42,26.42,0,0,0-1.77-3.32c-.63-1.13-1.26-2.26-1.91-3.37-1.27-2.17-2.53-4.34-3.83-6.49l-.64-1a2.7,2.7,0,0,1,.08-.39c.08-.32.15-.63.22-1,.16-.72.29-1.44.42-2.16.27-1.41.51-2.84.89-4.22,0-.1-.14-.14-.16,0-.3,1.41-.75,2.8-1.17,4.17-.2.68-.42,1.36-.6,2l-.18.7c-1.57-2.57-3.17-5.13-4.89-7.6a3.32,3.32,0,0,0,.17-1.06,10.913,10.913,0,0,1,.17-1.44c.13-1.09.25-2.17.41-3.25.32-2.12.63-4.23,1.16-6.31,0-.11-.14-.14-.17,0-.52,2.07-1.09,4.15-1.49,6.25-.19,1-.37,2.07-.51,3.11-.07.52-.13,1-.18,1.57a1.3,1.3,0,0,1-.06.47c-.53-.75-1.06-1.5-1.61-2.22-1.69-2.22-3.43-4.39-5.19-6.54-.07-.08-.21,0-.14.09a116.312,116.312,0,0,1,8.29,12.12c.49.77,1,1.55,1.44,2.33l-.48-.06c-.61-.08-1.24-.12-1.86-.17l-3.72-.33c-2.49-.2-5-.35-7.46-.61a.08.08,0,1,0,0,.16c2.52.29,5,.69,7.52,1.05l3.69.5a15.55,15.55,0,0,0,2.85.29l2.93,4.75a4.841,4.841,0,0,0-.66,0h-8.35c-.11,0-.09.16,0,.16,1.62,0,3.24.1,4.86.19.77,0,1.54.08,2.3.14l1.16.08a2.29,2.29,0,0,0,1,0l2.49,4.05c.76,1.24,1.54,2.49,2.33,3.72a29.459,29.459,0,0,0,2.5,3.75C136.43,360.37,136.57,360.31,136.53,360.21Z" fill="#263238"/>
      <path id="Path_150769" data-name="Path 150769" d="M129.5,333.58a24.2,24.2,0,0,1-.66,3.13c-.27,1.07-.58,2.12-.93,3.17a.1.1,0,1,0,.2.06c.33-1,.62-2.08.88-3.14s.42-2.14.67-3.19C129.69,333.5,129.51,333.47,129.5,333.58Z" fill="#263238"/>
      <path id="Path_150770" data-name="Path 150770" d="M118.66,340a1.27,1.27,0,0,0-.8-.3l-1.4-.19c-.86-.12-1.72-.21-2.59-.31-1.8-.21-3.6-.39-5.39-.61-.11,0-.14.15,0,.16,1.69.21,3.38.46,5.07.69l2.49.32,1.2.13a4.2,4.2,0,0,1,1.37.24C118.66,340.18,118.72,340.07,118.66,340Z" fill="#263238"/>
      <path id="Path_150771" data-name="Path 150771" d="M129.47,354.5c-.84-.07-1.7-.1-2.55-.12h-1.91a3.551,3.551,0,0,1-.8-.05c-.12,0-.13.19,0,.17a3.877,3.877,0,0,1,.76,0h.67l1.28.08c.85.05,1.71.1,2.56.11C129.57,354.69,129.58,354.51,129.47,354.5Z" fill="#263238"/>
      <path id="Path_150772" data-name="Path 150772" d="M134.68,350.82l.27-1.45c.18-.95.35-1.9.53-2.85a.09.09,0,0,0-.17,0c-.21.92-.42,1.85-.62,2.77-.11.47-.21.93-.31,1.39a3.74,3.74,0,0,1-.13.65,1.74,1.74,0,0,0-.08.68c0,.07.13.14.19.06a3.61,3.61,0,0,0,.32-1.25Z" fill="#263238"/>
      <path id="Path_150773" data-name="Path 150773" d="M126.25,379.22l-.7,13.61-2.1,40.21H80.44l-2.1-40.21-.7-13.61Z" fill="#455a64"/>
      <path id="Path_150774" data-name="Path 150774" d="M126.25,379.22l-.7,13.61H78.34l-.7-13.61Z" fill="#263238"/>
      <rect id="Rectangle_110160" data-name="Rectangle 110160" width="55.2" height="13.63" transform="translate(74.34 369.58)" fill="#455a64"/>
    </g>
  </g>
</svg>
